<?xml version="1.0" encoding="UTF-8" standalone="no"?><svg xmlns="http://www.w3.org/2000/svg" xmlns:xlink="http://www.w3.org/1999/xlink" contentStyleType="text/css" height="650px" preserveAspectRatio="none" style="width:1873px;height:650px;background:#FFFFFF;" version="1.1" viewBox="0 0 1873 650" width="1873px" zoomAndPan="magnify"><defs/><g><rect height="42.2969" style="stroke:#00000000;stroke-width:1.0;fill:none;" width="125" x="867.25" y="5"/><text fill="#000000" font-family="sans-serif" font-size="14" font-weight="bold" lengthAdjust="spacing" textLength="99" x="880.25" y="30.9951">NODE bug_m</text><!--MD5=[39c4eee9471449e046008ca5703679c3]
cluster PARAMETERS--><g id="cluster_PARAMETERS"><path d="M1048.5,346.2969 C1048.5,336.2969 1229,336.2969 1229,336.2969 C1229,336.2969 1409.5,336.2969 1409.5,346.2969 L1409.5,623.2969 C1409.5,633.2969 1229,633.2969 1229,633.2969 C1229,633.2969 1048.5,633.2969 1048.5,623.2969 L1048.5,346.2969 " style="stroke:#181818;stroke-width:1.0;fill:none;"/><path d="M1048.5,346.2969 C1048.5,356.2969 1229,356.2969 1229,356.2969 C1229,356.2969 1409.5,356.2969 1409.5,346.2969 " fill="none" style="stroke:#181818;stroke-width:1.0;"/><text fill="#000000" font-family="sans-serif" font-size="14" font-weight="bold" lengthAdjust="spacing" textLength="176" x="1141" y="379.292">ROS parameter server</text></g><!--MD5=[01bf3e4363d59cfe4feb1f9f5aa6a0d4]
cluster NODE_BUG_M--><g id="cluster_NODE_BUG_M"><rect height="177" rx="2.5" ry="2.5" style="stroke:#181818;stroke-width:1.0;fill:none;" width="358" x="819.5" y="60.2969"/><rect height="10" style="stroke:#181818;stroke-width:1.0;fill:none;" width="15" x="1157.5" y="65.2969"/><rect height="2" style="stroke:#181818;stroke-width:1.0;fill:none;" width="4" x="1155.5" y="67.2969"/><rect height="2" style="stroke:#181818;stroke-width:1.0;fill:none;" width="4" x="1155.5" y="71.2969"/><text fill="#000000" font-family="sans-serif" font-size="14" font-style="italic" lengthAdjust="spacing" textLength="104" x="946.5" y="94.292">«ROSPy node»</text><text fill="#000000" font-family="sans-serif" font-size="14" font-weight="bold" lengthAdjust="spacing" textLength="51" x="973" y="126.5889">bug_m</text></g><!--MD5=[3d2d0cdc5a87e8d33dbbdf625e1e368a]
entity des_pos_x--><g id="elem_des_pos_x"><polygon fill="#F1F1F1" points="1092,420.2969,1102,410.2969,1221,410.2969,1221,462.5938,1211,472.5938,1092,472.5938,1092,420.2969" style="stroke:#181818;stroke-width:0.5;"/><line style="stroke:#181818;stroke-width:0.5;" x1="1211" x2="1221" y1="420.2969" y2="410.2969"/><line style="stroke:#181818;stroke-width:0.5;" x1="1092" x2="1211" y1="420.2969" y2="420.2969"/><line style="stroke:#181818;stroke-width:0.5;" x1="1211" x2="1211" y1="420.2969" y2="472.5938"/><text fill="#000000" font-family="sans-serif" font-size="14" lengthAdjust="spacing" textLength="73" x="1115" y="451.292">des_pos_x</text></g><!--MD5=[f8ee79e2f34056c410e55b7856b01451]
entity des_pos_y--><g id="elem_des_pos_y"><polygon fill="#F1F1F1" points="1256,420.2969,1266,410.2969,1385,410.2969,1385,462.5938,1375,472.5938,1256,472.5938,1256,420.2969" style="stroke:#181818;stroke-width:0.5;"/><line style="stroke:#181818;stroke-width:0.5;" x1="1375" x2="1385" y1="420.2969" y2="410.2969"/><line style="stroke:#181818;stroke-width:0.5;" x1="1256" x2="1375" y1="420.2969" y2="420.2969"/><line style="stroke:#181818;stroke-width:0.5;" x1="1375" x2="1375" y1="420.2969" y2="472.5938"/><text fill="#000000" font-family="sans-serif" font-size="14" lengthAdjust="spacing" textLength="73" x="1279" y="451.292">des_pos_y</text></g><!--MD5=[acc9675f3f958e31865bb2808a39cf41]
entity des_yaw--><g id="elem_des_yaw"><polygon fill="#F1F1F1" points="1099,557.2969,1109,547.2969,1214,547.2969,1214,599.5938,1204,609.5938,1099,609.5938,1099,557.2969" style="stroke:#181818;stroke-width:0.5;"/><line style="stroke:#181818;stroke-width:0.5;" x1="1204" x2="1214" y1="557.2969" y2="547.2969"/><line style="stroke:#181818;stroke-width:0.5;" x1="1099" x2="1204" y1="557.2969" y2="557.2969"/><line style="stroke:#181818;stroke-width:0.5;" x1="1204" x2="1204" y1="557.2969" y2="609.5938"/><text fill="#000000" font-family="sans-serif" font-size="14" lengthAdjust="spacing" textLength="59" x="1122" y="588.292">des_yaw</text></g><!--MD5=[8e1eacda4580b15fb4a71e0bfab2db93]
entity NODE_BUG_M.READ_ODOM--><g id="elem_NODE_BUG_M.READ_ODOM"><polygon fill="#F1F1F1" points="863,161.2969,873,151.2969,994,151.2969,994,203.5938,984,213.5938,863,213.5938,863,161.2969" style="stroke:#181818;stroke-width:0.5;"/><line style="stroke:#181818;stroke-width:0.5;" x1="984" x2="994" y1="161.2969" y2="151.2969"/><line style="stroke:#181818;stroke-width:0.5;" x1="863" x2="984" y1="161.2969" y2="161.2969"/><line style="stroke:#181818;stroke-width:0.5;" x1="984" x2="984" y1="161.2969" y2="213.5938"/><text fill="#000000" font-family="sans-serif" font-size="14" lengthAdjust="spacing" textLength="75" x="886" y="192.292">clbk_odom</text></g><!--MD5=[05030d403f5f485f3569c237755bb83a]
entity NODE_BUG_M.LISTENER_LASER--><g id="elem_NODE_BUG_M.LISTENER_LASER"><polygon fill="#F1F1F1" points="1029.5,161.2969,1039.5,151.2969,1153.5,151.2969,1153.5,203.5938,1143.5,213.5938,1029.5,213.5938,1029.5,161.2969" style="stroke:#181818;stroke-width:0.5;"/><line style="stroke:#181818;stroke-width:0.5;" x1="1143.5" x2="1153.5" y1="161.2969" y2="151.2969"/><line style="stroke:#181818;stroke-width:0.5;" x1="1029.5" x2="1143.5" y1="161.2969" y2="161.2969"/><line style="stroke:#181818;stroke-width:0.5;" x1="1143.5" x2="1143.5" y1="161.2969" y2="213.5938"/><text fill="#000000" font-family="sans-serif" font-size="14" lengthAdjust="spacing" textLength="68" x="1052.5" y="192.292">clbk_laser</text></g><!--MD5=[9c0f7ecf381f88014a7ea481e5efb054]
entity TOPIC_ODOM--><g id="elem_TOPIC_ODOM"><ellipse cx="1471.5" cy="441.2969" fill="#F1F1F1" rx="8" ry="8" style="stroke:#181818;stroke-width:0.5;"/><text fill="#000000" font-family="sans-serif" font-size="14" lengthAdjust="spacing" textLength="45" x="1449" y="479.292">/odom</text></g><!--MD5=[cf4c761246342468269b9fda4f668b9a]
entity TOPIC_LASER--><g id="elem_TOPIC_LASER"><ellipse cx="1651.5" cy="441.2969" fill="#F1F1F1" rx="8" ry="8" style="stroke:#181818;stroke-width:0.5;"/><text fill="#000000" font-family="sans-serif" font-size="14" lengthAdjust="spacing" textLength="38" x="1632.5" y="479.292">/scan</text></g><!--MD5=[a29493d5c3d449fd805f8038216f6f38]
entity TOPIC_VEL--><g id="elem_TOPIC_VEL"><ellipse cx="36.5" cy="441.2969" fill="#F1F1F1" rx="8" ry="8" style="stroke:#181818;stroke-width:0.5;"/><text fill="#000000" font-family="sans-serif" font-size="14" lengthAdjust="spacing" textLength="61" x="6" y="479.292">/cmd_vel</text></g><!--MD5=[e15ecfc50d5ee6f9b14c4c0ec877aca4]
entity TOPIC_BUG_M_SIGNAL--><g id="elem_TOPIC_BUG_M_SIGNAL"><ellipse cx="294.5" cy="441.2969" fill="#F1F1F1" rx="8" ry="8" style="stroke:#181818;stroke-width:0.5;"/><text fill="#000000" font-family="sans-serif" font-size="14" lengthAdjust="spacing" textLength="99" x="245" y="479.292">/bug_m_signal</text></g><!--MD5=[e6d9a3d81fc487a20f0b2c2970d6073d]
entity SRV_GOTO_SWITCH--><g id="elem_SRV_GOTO_SWITCH"><ellipse cx="502.5" cy="441.2969" fill="#F1F1F1" rx="8" ry="8" style="stroke:#181818;stroke-width:0.5;"/><text fill="#000000" font-family="sans-serif" font-size="14" lengthAdjust="spacing" textLength="137" x="434" y="479.292">/go_to_point_switch</text></g><!--MD5=[0de5e037182cbe7d3ce53b2ba1c49cc1]
entity SRV_WALL_SWITCH--><g id="elem_SRV_WALL_SWITCH"><ellipse cx="719.5" cy="441.2969" fill="#F1F1F1" rx="8" ry="8" style="stroke:#181818;stroke-width:0.5;"/><text fill="#000000" font-family="sans-serif" font-size="14" lengthAdjust="spacing" textLength="141" x="649" y="479.292">/wall_follower_switch</text></g><!--MD5=[ce0550ece9e8498f5b487be6600f7375]
entity SRV_HEAD_ORIENT_SWITCH--><g id="elem_SRV_HEAD_ORIENT_SWITCH"><ellipse cx="936.5" cy="441.2969" fill="#F1F1F1" rx="8" ry="8" style="stroke:#181818;stroke-width:0.5;"/><text fill="#000000" font-family="sans-serif" font-size="14" lengthAdjust="spacing" textLength="138" x="867.5" y="479.292">/head_orient_switch</text></g><!--MD5=[fcd0e82e8f507c8ad0b4edc4ec707135]
reverse link NODE_BUG_M to PARAMETERS--><g id="link_NODE_BUG_M_PARAMETERS"><path d="M834.3083,237.3161 C834.7204,238.1974 835.1541,239.0667 835.6104,239.9218 C836.5231,241.632 837.5264,243.2852 838.6289,244.8638 C840.8338,248.0209 843.435,250.8794 846.5,253.2969 C869.72,271.6069 1091.91,240.0769 1112.5,261.2969 C1128.29,277.5669 1126.73,294.6569 1112.5,312.2969 C1101.93,325.3869 1087.06,308.0769 1075.5,320.2969 C1073.2175,322.7106 1071.1439,325.2816 1069.2623,327.9813 C1068.3214,329.3312 1067.4286,330.7132 1066.5815,332.1239 C1066.158,332.8292 1065.7459,333.5417 1065.3451,334.2609 C1065.1446,334.6205 1064.947,334.9818 1064.7521,335.3447 C1064.6547,335.5262 1064.558,335.708 1064.4619,335.8903 " fill="none" id="NODE_BUG_M-backto-PARAMETERS" style="stroke:#181818;stroke-width:1.0;"/><polygon fill="#181818" points="834.3083,237.3161,834.4968,247.1632,836.4261,241.8455,841.7437,243.7748,834.3083,237.3161" style="stroke:#181818;stroke-width:1.0;"/><text fill="#000000" font-family="sans-serif" font-size="13" lengthAdjust="spacing" textLength="21" x="798.48" y="203.5038">get</text></g><!--MD5=[50606cfa1abf67bc0bfa867db0e0c6f4]
reverse link NODE_BUG_M.READ_ODOM to TOPIC_ODOM--><g id="link_NODE_BUG_M.READ_ODOM_TOPIC_ODOM"><path codeLine="23" d="M959.03,216.8669 C973.73,230.7169 992.49,245.3569 1012.5,253.2969 C1039.61,264.0569 1114.63,257.1469 1143.5,261.2969 C1259.93,278.0469 1306.72,250.6369 1401.5,320.2969 C1441.73,349.8669 1462.67,410.0769 1469.21,432.0369 " fill="none" id="NODE_BUG_M.READ_ODOM-backto-TOPIC_ODOM" style="stroke:#181818;stroke-width:1.0;"/><polygon fill="#181818" points="955.39,213.3669,959.1101,222.4861,958.9961,216.8304,964.6518,216.7164,955.39,213.3669" style="stroke:#181818;stroke-width:1.0;"/><path d="M1389.5,266.2969 L1389.5,307.2969 L1591.5,307.2969 L1591.5,276.2969 L1581.5,266.2969 L1389.5,266.2969 " fill="#FEFFDD" style="stroke:#181818;stroke-width:0.5;"/><path d="M1581.5,266.2969 L1581.5,276.2969 L1591.5,276.2969 L1581.5,266.2969 " fill="#FEFFDD" style="stroke:#181818;stroke-width:0.5;"/><text fill="#000000" font-family="sans-serif" font-size="13" lengthAdjust="spacing" textLength="165" x="1403.5" y="291.3638">nav_msgs/Odometry.msg</text><text fill="#000000" font-family="sans-serif" font-size="13" lengthAdjust="spacing" textLength="23" x="925.7063" y="241.7144">sub</text></g><!--MD5=[7d06c8ae2e1af6d4d11e89a8b0079aa3]
reverse link NODE_BUG_M.LISTENER_LASER to TOPIC_LASER--><g id="link_NODE_BUG_M.LISTENER_LASER_TOPIC_LASER"><path codeLine="27" d="M1158.95,184.6169 C1282.89,188.4569 1540.09,203.3669 1604.5,261.2969 C1656.1,307.7069 1654.09,403.2369 1652.2,431.9469 " fill="none" id="NODE_BUG_M.LISTENER_LASER-backto-TOPIC_LASER" style="stroke:#181818;stroke-width:1.0;"/><polygon fill="#181818" points="1153.88,184.4669,1162.7499,188.7476,1158.8775,184.6239,1163.0012,180.7516,1153.88,184.4669" style="stroke:#181818;stroke-width:1.0;"/><path d="M1641.5,266.2969 L1641.5,307.2969 L1866.5,307.2969 L1866.5,276.2969 L1856.5,266.2969 L1641.5,266.2969 " fill="#FEFFDD" style="stroke:#181818;stroke-width:0.5;"/><path d="M1856.5,266.2969 L1856.5,276.2969 L1866.5,276.2969 L1856.5,266.2969 " fill="#FEFFDD" style="stroke:#181818;stroke-width:0.5;"/><text fill="#000000" font-family="sans-serif" font-size="13" lengthAdjust="spacing" textLength="188" x="1655.5" y="291.3638">sensor_msgs/LaserScan.msg</text><text fill="#000000" font-family="sans-serif" font-size="13" lengthAdjust="spacing" textLength="23" x="1169.4283" y="172.2973">sub</text></g><!--MD5=[2cbf74590d6c00b3fca55a4630363409]
link NODE_BUG_M to TOPIC_VEL--><g id="link_NODE_BUG_M_TOPIC_VEL"><path codeLine="31" d="M818.7336,183.5531 C818.3978,183.5634 818.0528,183.574 817.6986,183.5849 C812.0319,183.7591 804.0289,184.013 794.0092,184.3516 C773.9699,185.0286 745.8638,186.0438 712.2483,187.435 C645.0172,190.2175 555.7481,194.5044 464.8988,200.5994 C283.2,212.7894 95.18,232.2119 64.5,261.2969 C17.89,305.4869 27.82,393.0569 33.75,426.6969 " fill="none" id="NODE_BUG_M-to-TOPIC_VEL" style="stroke:#181818;stroke-width:1.0;"/><polygon fill="#181818" points="34.73,431.9769,37.0163,422.3971,33.8155,427.0612,29.1513,423.8603,34.73,431.9769" style="stroke:#181818;stroke-width:1.0;"/><path d="M69.5,266.2969 L69.5,307.2969 L277.5,307.2969 L277.5,276.2969 L267.5,266.2969 L69.5,266.2969 " fill="#FEFFDD" style="stroke:#181818;stroke-width:0.5;"/><path d="M267.5,266.2969 L267.5,276.2969 L277.5,276.2969 L267.5,266.2969 " fill="#FEFFDD" style="stroke:#181818;stroke-width:0.5;"/><text fill="#000000" font-family="sans-serif" font-size="13" lengthAdjust="spacing" textLength="171" x="83.5" y="291.3638">geometry_msgs/Twist.msg</text><text fill="#000000" font-family="sans-serif" font-size="13" lengthAdjust="spacing" textLength="24" x="795.37" y="172.3638">pub</text></g><!--MD5=[b608ae022f18d76ee49e8f6dca4752cc]
link NODE_BUG_M to TOPIC_BUG_M_SIGNAL--><g id="link_NODE_BUG_M_TOPIC_BUG_M_SIGNAL"><path codeLine="35" d="M819.3629,183.2653 C819.1115,183.2651 818.8546,183.2649 818.5922,183.2647 C817.5429,183.2642 816.4061,183.2645 815.185,183.266 C812.7427,183.2691 809.9627,183.2771 806.8682,183.2925 C794.4904,183.3545 777.081,183.537 756.1277,184.0122 C714.2209,184.9625 658.1381,187.0831 599.7788,191.7494 C483.06,201.0819 357.235,220.5969 317.5,261.2969 C272.81,307.0769 284.78,393.7069 291.45,426.8969 " fill="none" id="NODE_BUG_M-to-TOPIC_BUG_M_SIGNAL" style="stroke:#181818;stroke-width:1.0;"/><polygon fill="#181818" points="292.55,432.0969,294.6101,422.4659,291.5199,427.2041,286.7817,424.114,292.55,432.0969" style="stroke:#181818;stroke-width:1.0;"/><path d="M322.5,266.2969 L322.5,307.2969 L480.5,307.2969 L480.5,276.2969 L470.5,266.2969 L322.5,266.2969 " fill="#FEFFDD" style="stroke:#181818;stroke-width:0.5;"/><path d="M470.5,266.2969 L470.5,276.2969 L480.5,276.2969 L470.5,266.2969 " fill="#FEFFDD" style="stroke:#181818;stroke-width:0.5;"/><text fill="#000000" font-family="sans-serif" font-size="13" lengthAdjust="spacing" textLength="121" x="336.5" y="291.3638">std_srvs/Empty.srv</text><text fill="#000000" font-family="sans-serif" font-size="13" lengthAdjust="spacing" textLength="24" x="823.0007" y="203.7999">pub</text></g><!--MD5=[d2b55514db171e2cbb2b77beeba89690]
reverse link NODE_BUG_M to SRV_GOTO_SWITCH--><g id="link_NODE_BUG_M_SRV_GOTO_SWITCH"><path codeLine="39" d="M819.3376,184.0774 C819.1431,184.0968 818.9453,184.1166 818.7444,184.1368 C818.3425,184.1772 817.9279,184.219 817.5007,184.2624 C816.6464,184.349 815.7419,184.4414 814.789,184.5398 C807.1661,185.3268 796.4485,186.4912 783.5595,188.0467 C757.7816,191.1578 723.3181,195.8338 687.5563,202.1856 C616.0325,214.8894 539.315,234.2969 516.5,261.2969 C473.25,312.4869 492.77,403.9469 500.13,431.9369 " fill="none" id="NODE_BUG_M-backto-SRV_GOTO_SWITCH" style="stroke:#181818;stroke-width:1.0;"/><polygon fill="#181818" points="819.3376,184.0774,809.9842,180.9929,814.3624,184.575,810.7804,188.9532,819.3376,184.0774" style="stroke:#181818;stroke-width:1.0;"/><path d="M521.5,266.2969 L521.5,307.2969 L688.5,307.2969 L688.5,276.2969 L678.5,266.2969 L521.5,266.2969 " fill="#FEFFDD" style="stroke:#181818;stroke-width:0.5;"/><path d="M678.5,266.2969 L678.5,276.2969 L688.5,276.2969 L678.5,266.2969 " fill="#FEFFDD" style="stroke:#181818;stroke-width:0.5;"/><text fill="#000000" font-family="sans-serif" font-size="13" lengthAdjust="spacing" textLength="130" x="535.5" y="291.3638">std_srvs/SetBool.srv</text><text fill="#000000" font-family="sans-serif" font-size="13" lengthAdjust="spacing" textLength="10" x="835.45" y="172.3638">cl</text></g><!--MD5=[7fa9dd9e3b991b909dd28aede12b03b9]
reverse link NODE_BUG_M to SRV_WALL_SWITCH--><g id="link_NODE_BUG_M_SRV_WALL_SWITCH"><path codeLine="43" d="M819.2375,186.0524 C819.0307,186.1262 818.8205,186.2015 818.607,186.2783 C816.899,186.8927 814.9812,187.6032 812.8858,188.4109 C804.5041,191.6419 793.2806,196.4281 781.2813,202.8369 C757.2825,215.6544 730.18,234.9619 716.5,261.2969 C685.84,320.3169 708.54,405.7469 716.81,432.1869 " fill="none" id="NODE_BUG_M-backto-SRV_WALL_SWITCH" style="stroke:#181818;stroke-width:1.0;"/><polygon fill="#181818" points="819.2375,186.0524,809.4168,185.3087,814.5282,187.7323,812.1046,192.8437,819.2375,186.0524" style="stroke:#181818;stroke-width:1.0;"/><path d="M721.5,266.2969 L721.5,307.2969 L888.5,307.2969 L888.5,276.2969 L878.5,266.2969 L721.5,266.2969 " fill="#FEFFDD" style="stroke:#181818;stroke-width:0.5;"/><path d="M878.5,266.2969 L878.5,276.2969 L888.5,276.2969 L878.5,266.2969 " fill="#FEFFDD" style="stroke:#181818;stroke-width:0.5;"/><text fill="#000000" font-family="sans-serif" font-size="13" lengthAdjust="spacing" textLength="130" x="735.5" y="291.3638">std_srvs/SetBool.srv</text><text fill="#000000" font-family="sans-serif" font-size="13" lengthAdjust="spacing" textLength="10" x="809.44" y="203.3838">cl</text></g><!--MD5=[c8ae8bb65eb275d034e3808df72582ff]
reverse link NODE_BUG_M to SRV_HEAD_ORIENT_SWITCH--><g id="link_NODE_BUG_M_SRV_HEAD_ORIENT_SWITCH"><path codeLine="47" d="M835.1264,237.3733 C835.2291,237.5957 835.3331,237.8175 835.4383,238.0385 C835.6488,238.4806 835.8644,238.9199 836.0852,239.3562 C836.9685,241.1014 837.9356,242.7979 838.9939,244.429 C841.1106,247.6913 843.5925,250.6919 846.5,253.2969 C863.59,268.6069 880.81,245.5569 897.5,261.2969 C947.49,308.4269 940.89,403.4569 937.6,432.0069 " fill="none" id="NODE_BUG_M-backto-SRV_HEAD_ORIENT_SWITCH" style="stroke:#181818;stroke-width:1.0;"/><polygon fill="#181818" points="835.1264,237.3733,835.2678,247.2211,837.2225,241.9127,842.5309,243.8674,835.1264,237.3733" style="stroke:#181818;stroke-width:1.0;"/><path d="M932.5,266.2969 L932.5,307.2969 L1099.5,307.2969 L1099.5,276.2969 L1089.5,266.2969 L932.5,266.2969 " fill="#FEFFDD" style="stroke:#181818;stroke-width:0.5;"/><path d="M1089.5,266.2969 L1089.5,276.2969 L1099.5,276.2969 L1089.5,266.2969 " fill="#FEFFDD" style="stroke:#181818;stroke-width:0.5;"/><text fill="#000000" font-family="sans-serif" font-size="13" lengthAdjust="spacing" textLength="130" x="946.5" y="291.3638">std_srvs/SetBool.srv</text><text fill="#000000" font-family="sans-serif" font-size="13" lengthAdjust="spacing" textLength="10" x="835.49" y="203.5038">cl</text></g><!--MD5=[4f3cb7ad9888837a4cee169d24dcc81c]
@startuml

''' INFOS
title NODE bug_m
skinparam Padding 8
allow_mixing


''' COMPONENTS
database "ROS parameter server" as PARAMETERS {
	node "des_pos_x"
	node "des_pos_y"
	node "des_yaw"
}

component "bug_m" <<ROSPy node>> as NODE_BUG_M {
	node "clbk_odom" as NODE_BUG_M.READ_ODOM
	node "clbk_laser" as NODE_BUG_M.LISTENER_LASER
}

NODE_BUG_M "get" <- - PARAMETERS

() "/odom" as TOPIC_ODOM
NODE_BUG_M.READ_ODOM "sub" <- - TOPIC_ODOM
note on link: nav_msgs/Odometry.msg

() "/scan" as TOPIC_LASER
NODE_BUG_M.LISTENER_LASER "sub" <- - TOPIC_LASER
note on link: sensor_msgs/LaserScan.msg

() "/cmd_vel" as TOPIC_VEL
NODE_BUG_M "pub" - -> TOPIC_VEL
note on link: geometry_msgs/Twist.msg

() "/bug_m_signal" as TOPIC_BUG_M_SIGNAL
NODE_BUG_M "pub" - -> TOPIC_BUG_M_SIGNAL
note on link: std_srvs/Empty.srv

() "/go_to_point_switch" as SRV_GOTO_SWITCH
NODE_BUG_M "cl" <- - SRV_GOTO_SWITCH
note on link: std_srvs/SetBool.srv

() "/wall_follower_switch" as SRV_WALL_SWITCH
NODE_BUG_M "cl" <- - SRV_WALL_SWITCH
note on link: std_srvs/SetBool.srv

() "/head_orient_switch" as SRV_HEAD_ORIENT_SWITCH
NODE_BUG_M "cl" <- - SRV_HEAD_ORIENT_SWITCH
note on link: std_srvs/SetBool.srv

@enduml

@startuml

title NODE bug_m
skinparam Padding 8
allow_mixing


database "ROS parameter server" as PARAMETERS {
	node "des_pos_x"
	node "des_pos_y"
	node "des_yaw"
}

component "bug_m" <<ROSPy node>> as NODE_BUG_M {
	node "clbk_odom" as NODE_BUG_M.READ_ODOM
	node "clbk_laser" as NODE_BUG_M.LISTENER_LASER
}

NODE_BUG_M "get" <- - PARAMETERS

() "/odom" as TOPIC_ODOM
NODE_BUG_M.READ_ODOM "sub" <- - TOPIC_ODOM
note on link: nav_msgs/Odometry.msg

() "/scan" as TOPIC_LASER
NODE_BUG_M.LISTENER_LASER "sub" <- - TOPIC_LASER
note on link: sensor_msgs/LaserScan.msg

() "/cmd_vel" as TOPIC_VEL
NODE_BUG_M "pub" - -> TOPIC_VEL
note on link: geometry_msgs/Twist.msg

() "/bug_m_signal" as TOPIC_BUG_M_SIGNAL
NODE_BUG_M "pub" - -> TOPIC_BUG_M_SIGNAL
note on link: std_srvs/Empty.srv

() "/go_to_point_switch" as SRV_GOTO_SWITCH
NODE_BUG_M "cl" <- - SRV_GOTO_SWITCH
note on link: std_srvs/SetBool.srv

() "/wall_follower_switch" as SRV_WALL_SWITCH
NODE_BUG_M "cl" <- - SRV_WALL_SWITCH
note on link: std_srvs/SetBool.srv

() "/head_orient_switch" as SRV_HEAD_ORIENT_SWITCH
NODE_BUG_M "cl" <- - SRV_HEAD_ORIENT_SWITCH
note on link: std_srvs/SetBool.srv

@enduml

PlantUML version 1.2022.6(Tue Jun 21 17:34:49 UTC 2022)
(GPL source distribution)
Java Runtime: Java(TM) SE Runtime Environment
JVM: Java HotSpot(TM) 64-Bit Server VM
Default Encoding: UTF-8
Language: en
Country: US
--></g></svg>