<?xml version="1.0" encoding="UTF-8" standalone="no"?><svg xmlns="http://www.w3.org/2000/svg" xmlns:xlink="http://www.w3.org/1999/xlink" contentStyleType="text/css" height="433px" preserveAspectRatio="none" style="width:1037px;height:433px;background:#FFFFFF;" version="1.1" viewBox="0 0 1037 433" width="1037px" zoomAndPan="magnify"><defs/><g><rect height="42.2969" style="stroke:#00000000;stroke-width:1.0;fill:none;" width="225" x="399.25" y="5"/><text fill="#000000" font-family="sans-serif" font-size="14" font-weight="bold" lengthAdjust="spacing" textLength="199" x="412.25" y="30.9951">NODE wall_follow_service</text><!--MD5=[e12d9cd362ffb28dfd886312c6eed98e]
cluster NODE_WALL_FOLLOW--><g id="cluster_NODE_WALL_FOLLOW"><rect height="177" rx="2.5" ry="2.5" style="stroke:#181818;stroke-width:1.0;fill:none;" width="863" x="168.5" y="60.2969"/><rect height="10" style="stroke:#181818;stroke-width:1.0;fill:none;" width="15" x="1011.5" y="65.2969"/><rect height="2" style="stroke:#181818;stroke-width:1.0;fill:none;" width="4" x="1009.5" y="67.2969"/><rect height="2" style="stroke:#181818;stroke-width:1.0;fill:none;" width="4" x="1009.5" y="71.2969"/><text fill="#000000" font-family="sans-serif" font-size="14" font-style="italic" lengthAdjust="spacing" textLength="104" x="548" y="94.292">«ROSPy node»</text><text fill="#000000" font-family="sans-serif" font-size="14" font-weight="bold" lengthAdjust="spacing" textLength="151" x="524.5" y="126.5889">wall_follow_service</text></g><!--MD5=[1300f8656fb494e4e343a571f1e3e6d8]
entity WALL_FOLLOW_SWITCH--><g id="elem_WALL_FOLLOW_SWITCH"><polygon fill="#F1F1F1" points="815.5,161.2969,825.5,151.2969,1007.5,151.2969,1007.5,203.5938,997.5,213.5938,815.5,213.5938,815.5,161.2969" style="stroke:#181818;stroke-width:0.5;"/><line style="stroke:#181818;stroke-width:0.5;" x1="997.5" x2="1007.5" y1="161.2969" y2="151.2969"/><line style="stroke:#181818;stroke-width:0.5;" x1="815.5" x2="997.5" y1="161.2969" y2="161.2969"/><line style="stroke:#181818;stroke-width:0.5;" x1="997.5" x2="997.5" y1="161.2969" y2="213.5938"/><text fill="#000000" font-family="sans-serif" font-size="14" lengthAdjust="spacing" textLength="136" x="838.5" y="192.292">wall_follower_switch</text></g><!--MD5=[3db55a72a4cb2345546b5623bad04e6d]
entity LISTENER_LASER--><g id="elem_LISTENER_LASER"><polygon fill="#F1F1F1" points="656.5,161.2969,666.5,151.2969,780.5,151.2969,780.5,203.5938,770.5,213.5938,656.5,213.5938,656.5,161.2969" style="stroke:#181818;stroke-width:0.5;"/><line style="stroke:#181818;stroke-width:0.5;" x1="770.5" x2="780.5" y1="161.2969" y2="151.2969"/><line style="stroke:#181818;stroke-width:0.5;" x1="656.5" x2="770.5" y1="161.2969" y2="161.2969"/><line style="stroke:#181818;stroke-width:0.5;" x1="770.5" x2="770.5" y1="161.2969" y2="213.5938"/><text fill="#000000" font-family="sans-serif" font-size="14" lengthAdjust="spacing" textLength="68" x="679.5" y="192.292">clbk_laser</text></g><!--MD5=[68aba2f921e46e013fbba5867f8779c2]
class NODE_WALL_FOLLOW.LISTENER_LASER--><g id="elem_NODE_WALL_FOLLOW.LISTENER_LASER"><rect fill="#F1F1F1" height="58.2969" id="NODE_WALL_FOLLOW.LISTENER_LASER" rx="2.5" ry="2.5" style="stroke:#181818;stroke-width:0.5;" width="165" x="212" y="153.2969"/><ellipse cx="227" cy="174.4453" fill="#ADD1B2" rx="11" ry="11" style="stroke:#181818;stroke-width:1.0;"/><path d="M229.9688,180.0859 Q229.3906,180.3828 228.75,180.5313 Q228.1094,180.6797 227.4063,180.6797 Q224.9063,180.6797 223.5859,179.0313 Q222.2656,177.3828 222.2656,174.2578 Q222.2656,171.1328 223.5859,169.4766 Q224.9063,167.8203 227.4063,167.8203 Q228.1094,167.8203 228.7578,167.9766 Q229.4063,168.1328 229.9688,168.4297 L229.9688,171.1484 Q229.3438,170.5703 228.75,170.2969 Q228.1563,170.0234 227.5313,170.0234 Q226.1875,170.0234 225.5,171.0938 Q224.8125,172.1641 224.8125,174.2578 Q224.8125,176.3516 225.5,177.4219 Q226.1875,178.4922 227.5313,178.4922 Q228.1563,178.4922 228.75,178.2188 Q229.3438,177.9453 229.9688,177.3672 L229.9688,180.0859 Z " fill="#000000"/><text fill="#000000" font-family="sans-serif" font-size="14" lengthAdjust="spacing" textLength="117" x="249" y="179.292">LISTENER_LASER</text><line style="stroke:#181818;stroke-width:0.5;" x1="213" x2="376" y1="195.5938" y2="195.5938"/><line style="stroke:#181818;stroke-width:0.5;" x1="213" x2="376" y1="203.5938" y2="203.5938"/></g><!--MD5=[53b437e55171013cf00da34c82a63e2a]
class NODE_WALL_FOLLOW.WALL_FOLLOW_SWITCH--><g id="elem_NODE_WALL_FOLLOW.WALL_FOLLOW_SWITCH"><rect fill="#F1F1F1" height="58.2969" id="NODE_WALL_FOLLOW.WALL_FOLLOW_SWITCH" rx="2.5" ry="2.5" style="stroke:#181818;stroke-width:0.5;" width="209" x="412" y="153.2969"/><ellipse cx="427" cy="174.4453" fill="#ADD1B2" rx="11" ry="11" style="stroke:#181818;stroke-width:1.0;"/><path d="M429.9688,180.0859 Q429.3906,180.3828 428.75,180.5313 Q428.1094,180.6797 427.4063,180.6797 Q424.9063,180.6797 423.5859,179.0313 Q422.2656,177.3828 422.2656,174.2578 Q422.2656,171.1328 423.5859,169.4766 Q424.9063,167.8203 427.4063,167.8203 Q428.1094,167.8203 428.7578,167.9766 Q429.4063,168.1328 429.9688,168.4297 L429.9688,171.1484 Q429.3438,170.5703 428.75,170.2969 Q428.1563,170.0234 427.5313,170.0234 Q426.1875,170.0234 425.5,171.0938 Q424.8125,172.1641 424.8125,174.2578 Q424.8125,176.3516 425.5,177.4219 Q426.1875,178.4922 427.5313,178.4922 Q428.1563,178.4922 428.75,178.2188 Q429.3438,177.9453 429.9688,177.3672 L429.9688,180.0859 Z " fill="#000000"/><text fill="#000000" font-family="sans-serif" font-size="14" lengthAdjust="spacing" textLength="161" x="449" y="179.292">WALL_FOLLOW_SWITCH</text><line style="stroke:#181818;stroke-width:0.5;" x1="413" x2="620" y1="195.5938" y2="195.5938"/><line style="stroke:#181818;stroke-width:0.5;" x1="413" x2="620" y1="203.5938" y2="203.5938"/></g><!--MD5=[a29493d5c3d449fd805f8038216f6f38]
entity TOPIC_VEL--><g id="elem_TOPIC_VEL"><ellipse cx="36.5" cy="387.2969" fill="#F1F1F1" rx="8" ry="8" style="stroke:#181818;stroke-width:0.5;"/><text fill="#000000" font-family="sans-serif" font-size="14" lengthAdjust="spacing" textLength="61" x="6" y="425.292">/cmd_vel</text></g><!--MD5=[cf4c761246342468269b9fda4f668b9a]
entity TOPIC_LASER--><g id="elem_TOPIC_LASER"><ellipse cx="294.5" cy="387.2969" fill="#F1F1F1" rx="8" ry="8" style="stroke:#181818;stroke-width:0.5;"/><text fill="#000000" font-family="sans-serif" font-size="14" lengthAdjust="spacing" textLength="38" x="275.5" y="425.292">/scan</text></g><!--MD5=[0de5e037182cbe7d3ce53b2ba1c49cc1]
entity SRV_WALL_SWITCH--><g id="elem_SRV_WALL_SWITCH"><ellipse cx="569.5" cy="387.2969" fill="#F1F1F1" rx="8" ry="8" style="stroke:#181818;stroke-width:0.5;"/><text fill="#000000" font-family="sans-serif" font-size="14" lengthAdjust="spacing" textLength="141" x="499" y="425.292">/wall_follower_switch</text></g><!--MD5=[4ad012aca25ff41036241224281b2c4c]
link NODE_WALL_FOLLOW to TOPIC_VEL--><g id="link_NODE_WALL_FOLLOW_TOPIC_VEL"><path codeLine="15" d="M168.475,186.4894 C168.3762,186.5308 168.2766,186.5726 168.1763,186.6148 C166.5706,187.2897 164.7639,188.0661 162.7844,188.9425 C154.8662,192.4481 144.1825,197.5544 132.535,204.1719 C109.24,217.4069 82.09,236.6869 65.5,261.2969 C41.75,296.5269 37.29,348.6369 36.56,372.9269 " fill="none" id="NODE_WALL_FOLLOW-to-TOPIC_VEL" style="stroke:#181818;stroke-width:1.0;"/><polygon fill="#181818" points="36.45,378.2069,40.6292,369.2887,36.55,373.2079,32.6308,369.1287,36.45,378.2069" style="stroke:#181818;stroke-width:1.0;"/><path d="M70.5,266.2969 L70.5,307.2969 L278.5,307.2969 L278.5,276.2969 L268.5,266.2969 L70.5,266.2969 " fill="#FEFFDD" style="stroke:#181818;stroke-width:0.5;"/><path d="M268.5,266.2969 L268.5,276.2969 L278.5,276.2969 L268.5,266.2969 " fill="#FEFFDD" style="stroke:#181818;stroke-width:0.5;"/><text fill="#000000" font-family="sans-serif" font-size="13" lengthAdjust="spacing" textLength="171" x="84.5" y="291.3638">geometry_msgs/Twist.msg</text><text fill="#000000" font-family="sans-serif" font-size="13" lengthAdjust="spacing" textLength="24" x="144.44" y="172.3838">pub</text></g><!--MD5=[273255a2633db1ed80ff87e82ca2ca34]
reverse link NODE_WALL_FOLLOW.LISTENER_LASER to TOPIC_LASER--><g id="link_NODE_WALL_FOLLOW.LISTENER_LASER_TOPIC_LASER"><path codeLine="19" d="M292.93,216.8069 C292.36,230.5869 291.78,246.7069 291.5,261.2969 C291.06,283.9569 291.04,289.6369 291.5,312.2969 C291.98,336.2069 293.35,364.4369 294.06,378.0869 " fill="none" id="NODE_WALL_FOLLOW.LISTENER_LASER-backto-TOPIC_LASER" style="stroke:#181818;stroke-width:1.0;"/><polygon fill="#181818" points="293.16,211.4469,288.7772,220.2668,292.9453,216.4423,296.7698,220.6103,293.16,211.4469" style="stroke:#181818;stroke-width:1.0;"/><path d="M296.5,266.2969 L296.5,307.2969 L521.5,307.2969 L521.5,276.2969 L511.5,266.2969 L296.5,266.2969 " fill="#FEFFDD" style="stroke:#181818;stroke-width:0.5;"/><path d="M511.5,266.2969 L511.5,276.2969 L521.5,276.2969 L511.5,266.2969 " fill="#FEFFDD" style="stroke:#181818;stroke-width:0.5;"/><text fill="#000000" font-family="sans-serif" font-size="13" lengthAdjust="spacing" textLength="188" x="310.5" y="291.3638">sensor_msgs/LaserScan.msg</text><text fill="#000000" font-family="sans-serif" font-size="13" lengthAdjust="spacing" textLength="23" x="258.3176" y="239.731">sub</text></g><!--MD5=[44422f564b8c4d696d050f88bc7dac28]
link NODE_WALL_FOLLOW.WALL_FOLLOW_SWITCH to SRV_WALL_SWITCH--><g id="link_NODE_WALL_FOLLOW.WALL_FOLLOW_SWITCH_SRV_WALL_SWITCH"><path codeLine="23" d="M523.87,211.5269 C535.48,256.0169 557.6,340.7169 566.08,373.1869 " fill="none" id="NODE_WALL_FOLLOW.WALL_FOLLOW_SWITCH-to-SRV_WALL_SWITCH" style="stroke:#181818;stroke-width:1.0;"/><polygon fill="#181818" points="567.41,378.2769,569.0203,368.5606,566.1537,373.4373,561.277,370.5706,567.41,378.2769" style="stroke:#181818;stroke-width:1.0;"/><path d="M553.5,266.2969 L553.5,307.2969 L720.5,307.2969 L720.5,276.2969 L710.5,266.2969 L553.5,266.2969 " fill="#FEFFDD" style="stroke:#181818;stroke-width:0.5;"/><path d="M710.5,266.2969 L710.5,276.2969 L720.5,276.2969 L710.5,266.2969 " fill="#FEFFDD" style="stroke:#181818;stroke-width:0.5;"/><text fill="#000000" font-family="sans-serif" font-size="13" lengthAdjust="spacing" textLength="130" x="567.5" y="291.3638">std_srvs/SetBool.srv</text><text fill="#000000" font-family="sans-serif" font-size="13" lengthAdjust="spacing" textLength="19" x="495.0656" y="239.5467">srv</text></g><!--MD5=[36adbede6b75e6b233e7213680638c59]
@startuml

''' INFOS
title NODE wall_follow_service
skinparam Padding 8
allow_mixing


''' COMPONENTS
component "wall_follow_service" <<ROSPy node>> as NODE_WALL_FOLLOW {
	node "wall_follower_switch" as WALL_FOLLOW_SWITCH
	node "clbk_laser" as LISTENER_LASER
}

() "/cmd_vel" as TOPIC_VEL
NODE_WALL_FOLLOW "pub" - -> TOPIC_VEL
note on link: geometry_msgs/Twist.msg

() "/scan" as TOPIC_LASER
NODE_WALL_FOLLOW.LISTENER_LASER "sub" <- - TOPIC_LASER
note on link: sensor_msgs/LaserScan.msg

() "/wall_follower_switch" as SRV_WALL_SWITCH
NODE_WALL_FOLLOW.WALL_FOLLOW_SWITCH "srv" - -> SRV_WALL_SWITCH
note on link: std_srvs/SetBool.srv

@enduml

@startuml

title NODE wall_follow_service
skinparam Padding 8
allow_mixing


component "wall_follow_service" <<ROSPy node>> as NODE_WALL_FOLLOW {
	node "wall_follower_switch" as WALL_FOLLOW_SWITCH
	node "clbk_laser" as LISTENER_LASER
}

() "/cmd_vel" as TOPIC_VEL
NODE_WALL_FOLLOW "pub" - -> TOPIC_VEL
note on link: geometry_msgs/Twist.msg

() "/scan" as TOPIC_LASER
NODE_WALL_FOLLOW.LISTENER_LASER "sub" <- - TOPIC_LASER
note on link: sensor_msgs/LaserScan.msg

() "/wall_follower_switch" as SRV_WALL_SWITCH
NODE_WALL_FOLLOW.WALL_FOLLOW_SWITCH "srv" - -> SRV_WALL_SWITCH
note on link: std_srvs/SetBool.srv

@enduml

PlantUML version 1.2022.6(Tue Jun 21 17:34:49 UTC 2022)
(GPL source distribution)
Java Runtime: Java(TM) SE Runtime Environment
JVM: Java HotSpot(TM) 64-Bit Server VM
Default Encoding: UTF-8
Language: en
Country: US
--></g></svg>