<?xml version="1.0" encoding="UTF-8" standalone="no"?><svg xmlns="http://www.w3.org/2000/svg" xmlns:xlink="http://www.w3.org/1999/xlink" contentStyleType="text/css" height="513px" preserveAspectRatio="none" style="width:1103px;height:513px;background:#FFFFFF;" version="1.1" viewBox="0 0 1103 513" width="1103px" zoomAndPan="magnify"><defs/><g><rect height="42.2969" style="stroke:#00000000;stroke-width:1.0;fill:none;" width="164" x="462.695" y="5"/><text fill="#000000" font-family="sans-serif" font-size="14" font-weight="bold" lengthAdjust="spacing" textLength="138" x="475.695" y="30.9951">NODE go_to_point</text><!--MD5=[39c4eee9471449e046008ca5703679c3]
cluster PARAMETERS--><g id="cluster_PARAMETERS"><path d="M203.39,346.2969 C203.39,336.2969 383.89,336.2969 383.89,336.2969 C383.89,336.2969 564.39,336.2969 564.39,346.2969 L564.39,486.2969 C564.39,496.2969 383.89,496.2969 383.89,496.2969 C383.89,496.2969 203.39,496.2969 203.39,486.2969 L203.39,346.2969 " style="stroke:#181818;stroke-width:1.0;fill:none;"/><path d="M203.39,346.2969 C203.39,356.2969 383.89,356.2969 383.89,356.2969 C383.89,356.2969 564.39,356.2969 564.39,346.2969 " fill="none" style="stroke:#181818;stroke-width:1.0;"/><text fill="#000000" font-family="sans-serif" font-size="14" font-weight="bold" lengthAdjust="spacing" textLength="176" x="295.89" y="379.292">ROS parameter server</text></g><!--MD5=[df00c08cd854dd1b88de766977ab372e]
cluster NODE_GO_TO_POINT--><g id="cluster_NODE_GO_TO_POINT"><rect height="177" rx="2.5" ry="2.5" style="stroke:#181818;stroke-width:1.0;fill:none;" width="255" x="283.39" y="60.2969"/><rect height="10" style="stroke:#181818;stroke-width:1.0;fill:none;" width="15" x="518.39" y="65.2969"/><rect height="2" style="stroke:#181818;stroke-width:1.0;fill:none;" width="4" x="516.39" y="67.2969"/><rect height="2" style="stroke:#181818;stroke-width:1.0;fill:none;" width="4" x="516.39" y="71.2969"/><text fill="#000000" font-family="sans-serif" font-size="14" font-style="italic" lengthAdjust="spacing" textLength="104" x="358.89" y="94.292">«ROSPy node»</text><text fill="#000000" font-family="sans-serif" font-size="14" font-weight="bold" lengthAdjust="spacing" textLength="155" x="333.39" y="126.5889">go_to_point_service</text></g><!--MD5=[07b56bb5703613ba0afc989769c82948]
cluster GOTO--><g id="cluster_GOTO"><path d="M809.89,100.2969 L872.89,100.2969 A3.75,3.75 0 0 1 875.39,102.7969 L882.39,138.5938 L968.89,138.5938 A2.5,2.5 0 0 1 971.39,141.0938 L971.39,226.7969 A2.5,2.5 0 0 1 968.89,229.2969 L809.89,229.2969 A2.5,2.5 0 0 1 807.39,226.7969 L807.39,102.7969 A2.5,2.5 0 0 1 809.89,100.2969 " style="stroke:#000000;stroke-width:1.5;fill:none;"/><line style="stroke:#000000;stroke-width:1.5;fill:none;" x1="807.39" x2="882.39" y1="138.5938" y2="138.5938"/><text fill="#000000" font-family="sans-serif" font-size="14" font-weight="bold" lengthAdjust="spacing" textLength="46" x="819.39" y="123.292">GOTO</text></g><!--MD5=[3d2d0cdc5a87e8d33dbbdf625e1e368a]
entity des_pos_x--><g id="elem_des_pos_x"><polygon fill="#F1F1F1" points="410.89,420.2969,420.89,410.2969,539.89,410.2969,539.89,462.5938,529.89,472.5938,410.89,472.5938,410.89,420.2969" style="stroke:#181818;stroke-width:0.5;"/><line style="stroke:#181818;stroke-width:0.5;" x1="529.89" x2="539.89" y1="420.2969" y2="410.2969"/><line style="stroke:#181818;stroke-width:0.5;" x1="410.89" x2="529.89" y1="420.2969" y2="420.2969"/><line style="stroke:#181818;stroke-width:0.5;" x1="529.89" x2="529.89" y1="420.2969" y2="472.5938"/><text fill="#000000" font-family="sans-serif" font-size="14" lengthAdjust="spacing" textLength="73" x="433.89" y="451.292">des_pos_x</text></g><!--MD5=[f8ee79e2f34056c410e55b7856b01451]
entity des_pos_y--><g id="elem_des_pos_y"><polygon fill="#F1F1F1" points="246.89,420.2969,256.89,410.2969,375.89,410.2969,375.89,462.5938,365.89,472.5938,246.89,472.5938,246.89,420.2969" style="stroke:#181818;stroke-width:0.5;"/><line style="stroke:#181818;stroke-width:0.5;" x1="365.89" x2="375.89" y1="420.2969" y2="410.2969"/><line style="stroke:#181818;stroke-width:0.5;" x1="246.89" x2="365.89" y1="420.2969" y2="420.2969"/><line style="stroke:#181818;stroke-width:0.5;" x1="365.89" x2="365.89" y1="420.2969" y2="472.5938"/><text fill="#000000" font-family="sans-serif" font-size="14" lengthAdjust="spacing" textLength="73" x="269.89" y="451.292">des_pos_y</text></g><!--MD5=[495b0ec27928dd2ffdd338d6d2193b46]
entity GOTOPOINT_SWITCH--><g id="elem_GOTOPOINT_SWITCH"><polygon fill="#F1F1F1" points="326.39,161.2969,336.39,151.2969,514.39,151.2969,514.39,203.5938,504.39,213.5938,326.39,213.5938,326.39,161.2969" style="stroke:#181818;stroke-width:0.5;"/><line style="stroke:#181818;stroke-width:0.5;" x1="504.39" x2="514.39" y1="161.2969" y2="151.2969"/><line style="stroke:#181818;stroke-width:0.5;" x1="326.39" x2="504.39" y1="161.2969" y2="161.2969"/><line style="stroke:#181818;stroke-width:0.5;" x1="504.39" x2="504.39" y1="161.2969" y2="213.5938"/><text fill="#000000" font-family="sans-serif" font-size="14" lengthAdjust="spacing" textLength="132" x="349.39" y="192.292">go_to_point_switch</text></g><!--MD5=[0f5faefbee856798fecf49d8f6ed039f]
entity GOTO.READ_ODOM--><g id="elem_GOTO.READ_ODOM"><polygon fill="#F1F1F1" points="823.89,161.2969,833.89,151.2969,954.89,151.2969,954.89,203.5938,944.89,213.5938,823.89,213.5938,823.89,161.2969" style="stroke:#181818;stroke-width:0.5;"/><line style="stroke:#181818;stroke-width:0.5;" x1="944.89" x2="954.89" y1="161.2969" y2="151.2969"/><line style="stroke:#181818;stroke-width:0.5;" x1="823.89" x2="944.89" y1="161.2969" y2="161.2969"/><line style="stroke:#181818;stroke-width:0.5;" x1="944.89" x2="944.89" y1="161.2969" y2="213.5938"/><text fill="#000000" font-family="sans-serif" font-size="14" lengthAdjust="spacing" textLength="75" x="846.89" y="192.292">clbk_odom</text></g><!--MD5=[a29493d5c3d449fd805f8038216f6f38]
entity TOPIC_VEL--><g id="elem_TOPIC_VEL"><ellipse cx="50.39" cy="441.2969" fill="#F1F1F1" rx="8" ry="8" style="stroke:#181818;stroke-width:0.5;"/><text fill="#000000" font-family="sans-serif" font-size="14" lengthAdjust="spacing" textLength="61" x="19.89" y="479.292">/cmd_vel</text></g><!--MD5=[9c0f7ecf381f88014a7ea481e5efb054]
entity TOPIC_ODOM--><g id="elem_TOPIC_ODOM"><ellipse cx="889.39" cy="441.2969" fill="#F1F1F1" rx="8" ry="8" style="stroke:#181818;stroke-width:0.5;"/><text fill="#000000" font-family="sans-serif" font-size="14" lengthAdjust="spacing" textLength="45" x="866.89" y="479.292">/odom</text></g><!--MD5=[e6d9a3d81fc487a20f0b2c2970d6073d]
entity SRV_GOTO_SWITCH--><g id="elem_SRV_GOTO_SWITCH"><ellipse cx="672.39" cy="441.2969" fill="#F1F1F1" rx="8" ry="8" style="stroke:#181818;stroke-width:0.5;"/><text fill="#000000" font-family="sans-serif" font-size="14" lengthAdjust="spacing" textLength="137" x="603.89" y="479.292">/go_to_point_switch</text></g><!--MD5=[9bdf0863ea8b3a9cff9085e23e341ae2]
reverse link NODE_GO_TO_POINT to PARAMETERS--><g id="link_NODE_GO_TO_POINT_PARAMETERS"><path d="M295.3817,237.8203 C295.3725,238.0331 295.363,238.2461 295.3531,238.4594 C295.2742,240.1656 295.1733,241.8868 295.0482,243.6191 C294.7981,247.0836 294.4511,250.5924 293.9894,254.1147 C293.0658,261.1592 291.683,268.2575 289.697,275.1625 C285.725,288.9725 279.34,302.0094 269.39,312.2969 C257.09,325.0169 242.62,307.5069 230.39,320.2969 C228.095,322.6988 226.0105,325.2593 224.1192,327.9499 C223.1736,329.2952 222.2762,330.673 221.4251,332.0798 C220.9995,332.7831 220.5855,333.4938 220.1827,334.2112 C219.9813,334.5699 219.7828,334.9302 219.587,335.2923 C219.4891,335.4733 219.3919,335.6547 219.2954,335.8366 " fill="none" id="NODE_GO_TO_POINT-backto-PARAMETERS" style="stroke:#181818;stroke-width:1.0;"/><polygon fill="#181818" points="295.3817,237.8203,290.9974,246.6395,295.1661,242.8156,298.9899,246.9844,295.3817,237.8203" style="stroke:#181818;stroke-width:1.0;"/><text fill="#000000" font-family="sans-serif" font-size="13" lengthAdjust="spacing" textLength="21" x="262.4" y="203.4238">get</text></g><!--MD5=[1a33593d04dbb53e66cf90ffc61b646d]
link NODE_GO_TO_POINT to TOPIC_VEL--><g id="link_NODE_GO_TO_POINT_TOPIC_VEL"><path codeLine="23" d="M283.2763,182.8154 C283.1187,182.8082 282.959,182.8011 282.7973,182.7939 C282.4737,182.7797 282.1418,182.7655 281.8017,182.7514 C276.3593,182.5261 268.8079,182.3306 259.6895,182.395 C241.4528,182.5238 216.9481,183.6919 190.5113,187.7394 C137.6375,195.8344 77.035,215.4469 43.39,261.2969 C6,312.2569 32.39,395.1269 44.86,427.1169 " fill="none" id="NODE_GO_TO_POINT-to-TOPIC_VEL" style="stroke:#181818;stroke-width:1.0;"/><polygon fill="#181818" points="46.86,432.1369,47.2314,422.295,45.003,427.4945,39.8036,425.2661,46.86,432.1369" style="stroke:#181818;stroke-width:1.0;"/><path d="M48.39,266.2969 L48.39,307.2969 L256.39,307.2969 L256.39,276.2969 L246.39,266.2969 L48.39,266.2969 " fill="#FEFFDD" style="stroke:#181818;stroke-width:0.5;"/><path d="M246.39,266.2969 L246.39,276.2969 L256.39,276.2969 L246.39,266.2969 " fill="#FEFFDD" style="stroke:#181818;stroke-width:0.5;"/><text fill="#000000" font-family="sans-serif" font-size="13" lengthAdjust="spacing" textLength="171" x="62.39" y="291.3638">geometry_msgs/Twist.msg</text><text fill="#000000" font-family="sans-serif" font-size="13" lengthAdjust="spacing" textLength="24" x="259.26" y="172.3538">pub</text></g><!--MD5=[ed6992df4f7f6af78d1821643ec0f30f]
reverse link GOTO.READ_ODOM to TOPIC_ODOM--><g id="link_GOTO.READ_ODOM_TOPIC_ODOM"><path codeLine="27" d="M889.39,218.8569 C889.39,279.5069 889.39,399.5469 889.39,432.0269 " fill="none" id="GOTO.READ_ODOM-backto-TOPIC_ODOM" style="stroke:#181818;stroke-width:1.0;"/><polygon fill="#181818" points="889.39,213.5369,885.39,222.5369,889.39,218.5369,893.39,222.5369,889.39,213.5369" style="stroke:#181818;stroke-width:1.0;"/><path d="M894.39,266.2969 L894.39,307.2969 L1096.39,307.2969 L1096.39,276.2969 L1086.39,266.2969 L894.39,266.2969 " fill="#FEFFDD" style="stroke:#181818;stroke-width:0.5;"/><path d="M1086.39,266.2969 L1086.39,276.2969 L1096.39,276.2969 L1086.39,266.2969 " fill="#FEFFDD" style="stroke:#181818;stroke-width:0.5;"/><text fill="#000000" font-family="sans-serif" font-size="13" lengthAdjust="spacing" textLength="165" x="908.39" y="291.3638">nav_msgs/Odometry.msg</text><text fill="#000000" font-family="sans-serif" font-size="13" lengthAdjust="spacing" textLength="23" x="855.0384" y="241.6231">sub</text></g><!--MD5=[a082e6564b5e87a24b4453dba4bf4849]
link GOTOPOINT_SWITCH to SRV_GOTO_SWITCH--><g id="link_GOTOPOINT_SWITCH_SRV_GOTO_SWITCH"><path codeLine="31" d="M450.49,213.3869 C478.12,241.0669 520.16,283.3069 556.39,320.2969 C594.95,359.6569 640.23,406.7569 660.97,428.3769 " fill="none" id="GOTOPOINT_SWITCH-to-SRV_GOTO_SWITCH" style="stroke:#181818;stroke-width:1.0;"/><polygon fill="#181818" points="664.55,432.1169,661.2012,422.8548,661.0867,428.5105,655.431,428.396,664.55,432.1169" style="stroke:#181818;stroke-width:1.0;"/><path d="M550.39,266.2969 L550.39,307.2969 L717.39,307.2969 L717.39,276.2969 L707.39,266.2969 L550.39,266.2969 " fill="#FEFFDD" style="stroke:#181818;stroke-width:0.5;"/><path d="M707.39,266.2969 L707.39,276.2969 L717.39,276.2969 L707.39,266.2969 " fill="#FEFFDD" style="stroke:#181818;stroke-width:0.5;"/><text fill="#000000" font-family="sans-serif" font-size="13" lengthAdjust="spacing" textLength="130" x="564.39" y="291.3638">std_srvs/SetBool.srv</text><text fill="#000000" font-family="sans-serif" font-size="13" lengthAdjust="spacing" textLength="19" x="425.7344" y="241.738">srv</text></g><!--MD5=[82899b69fb2081112216053da1eb0c5e]
@startuml

''' INFOS
title NODE go_to_point
skinparam Padding 8
allow_mixing


''' COMPONENTS
database "ROS parameter server" as PARAMETERS {
	node "des_pos_x"
	node "des_pos_y"
}

component "go_to_point_service" <<ROSPy node>> as NODE_GO_TO_POINT {
	node "go_to_point_switch" as GOTOPOINT_SWITCH
	node "clbk_odom" as GOTO.READ_ODOM
	
}

NODE_GO_TO_POINT "get" <- - PARAMETERS

() "/cmd_vel" as TOPIC_VEL
NODE_GO_TO_POINT "pub" - -> TOPIC_VEL
note on link: geometry_msgs/Twist.msg

() "/odom" as TOPIC_ODOM
GOTO.READ_ODOM "sub" <- - TOPIC_ODOM
note on link: nav_msgs/Odometry.msg

() "/go_to_point_switch" as SRV_GOTO_SWITCH
GOTOPOINT_SWITCH "srv" - -> SRV_GOTO_SWITCH
note on link: std_srvs/SetBool.srv

@enduml

@startuml

title NODE go_to_point
skinparam Padding 8
allow_mixing


database "ROS parameter server" as PARAMETERS {
	node "des_pos_x"
	node "des_pos_y"
}

component "go_to_point_service" <<ROSPy node>> as NODE_GO_TO_POINT {
	node "go_to_point_switch" as GOTOPOINT_SWITCH
	node "clbk_odom" as GOTO.READ_ODOM
	
}

NODE_GO_TO_POINT "get" <- - PARAMETERS

() "/cmd_vel" as TOPIC_VEL
NODE_GO_TO_POINT "pub" - -> TOPIC_VEL
note on link: geometry_msgs/Twist.msg

() "/odom" as TOPIC_ODOM
GOTO.READ_ODOM "sub" <- - TOPIC_ODOM
note on link: nav_msgs/Odometry.msg

() "/go_to_point_switch" as SRV_GOTO_SWITCH
GOTOPOINT_SWITCH "srv" - -> SRV_GOTO_SWITCH
note on link: std_srvs/SetBool.srv

@enduml

PlantUML version 1.2022.6(Tue Jun 21 17:34:49 UTC 2022)
(GPL source distribution)
Java Runtime: Java(TM) SE Runtime Environment
JVM: Java HotSpot(TM) 64-Bit Server VM
Default Encoding: UTF-8
Language: en
Country: US
--></g></svg>