<?xml version="1.0" encoding="UTF-8" standalone="no"?><svg xmlns="http://www.w3.org/2000/svg" xmlns:xlink="http://www.w3.org/1999/xlink" contentStyleType="text/css" height="433px" preserveAspectRatio="none" style="width:1198px;height:433px;background:#FFFFFF;" version="1.1" viewBox="0 0 1198 433" width="1198px" zoomAndPan="magnify"><defs/><g><rect height="42.2969" style="stroke:#00000000;stroke-width:1.0;fill:none;" width="125" x="529.75" y="5"/><text fill="#000000" font-family="sans-serif" font-size="14" font-weight="bold" lengthAdjust="spacing" textLength="99" x="542.75" y="30.9951">NODE bug_m</text><!--MD5=[01bf3e4363d59cfe4feb1f9f5aa6a0d4]
cluster NODE_BUG_M--><g id="cluster_NODE_BUG_M"><rect height="177" rx="2.5" ry="2.5" style="stroke:#181818;stroke-width:1.0;fill:none;" width="358" x="503.5" y="60.2969"/><rect height="10" style="stroke:#181818;stroke-width:1.0;fill:none;" width="15" x="841.5" y="65.2969"/><rect height="2" style="stroke:#181818;stroke-width:1.0;fill:none;" width="4" x="839.5" y="67.2969"/><rect height="2" style="stroke:#181818;stroke-width:1.0;fill:none;" width="4" x="839.5" y="71.2969"/><text fill="#000000" font-family="sans-serif" font-size="14" font-style="italic" lengthAdjust="spacing" textLength="104" x="630.5" y="94.292">«ROSPy node»</text><text fill="#000000" font-family="sans-serif" font-size="14" font-weight="bold" lengthAdjust="spacing" textLength="51" x="657" y="126.5889">bug_m</text></g><!--MD5=[8e1eacda4580b15fb4a71e0bfab2db93]
entity NODE_BUG_M.READ_ODOM--><g id="elem_NODE_BUG_M.READ_ODOM"><polygon fill="#F1F1F1" points="547,161.2969,557,151.2969,678,151.2969,678,203.5938,668,213.5938,547,213.5938,547,161.2969" style="stroke:#181818;stroke-width:0.5;"/><line style="stroke:#181818;stroke-width:0.5;" x1="668" x2="678" y1="161.2969" y2="151.2969"/><line style="stroke:#181818;stroke-width:0.5;" x1="547" x2="668" y1="161.2969" y2="161.2969"/><line style="stroke:#181818;stroke-width:0.5;" x1="668" x2="668" y1="161.2969" y2="213.5938"/><text fill="#000000" font-family="sans-serif" font-size="14" lengthAdjust="spacing" textLength="75" x="570" y="192.292">clbk_odom</text></g><!--MD5=[05030d403f5f485f3569c237755bb83a]
entity NODE_BUG_M.LISTENER_LASER--><g id="elem_NODE_BUG_M.LISTENER_LASER"><polygon fill="#F1F1F1" points="713.5,161.2969,723.5,151.2969,837.5,151.2969,837.5,203.5938,827.5,213.5938,713.5,213.5938,713.5,161.2969" style="stroke:#181818;stroke-width:0.5;"/><line style="stroke:#181818;stroke-width:0.5;" x1="827.5" x2="837.5" y1="161.2969" y2="151.2969"/><line style="stroke:#181818;stroke-width:0.5;" x1="713.5" x2="827.5" y1="161.2969" y2="161.2969"/><line style="stroke:#181818;stroke-width:0.5;" x1="827.5" x2="827.5" y1="161.2969" y2="213.5938"/><text fill="#000000" font-family="sans-serif" font-size="14" lengthAdjust="spacing" textLength="68" x="736.5" y="192.292">clbk_laser</text></g><!--MD5=[9c0f7ecf381f88014a7ea481e5efb054]
entity TOPIC_ODOM--><g id="elem_TOPIC_ODOM"><ellipse cx="728.5" cy="387.2969" fill="#F1F1F1" rx="8" ry="8" style="stroke:#181818;stroke-width:0.5;"/><text fill="#000000" font-family="sans-serif" font-size="14" lengthAdjust="spacing" textLength="45" x="706" y="425.292">/odom</text></g><!--MD5=[cf4c761246342468269b9fda4f668b9a]
entity TOPIC_LASER--><g id="elem_TOPIC_LASER"><ellipse cx="980.5" cy="387.2969" fill="#F1F1F1" rx="8" ry="8" style="stroke:#181818;stroke-width:0.5;"/><text fill="#000000" font-family="sans-serif" font-size="14" lengthAdjust="spacing" textLength="38" x="961.5" y="425.292">/scan</text></g><!--MD5=[a29493d5c3d449fd805f8038216f6f38]
entity TOPIC_VEL--><g id="elem_TOPIC_VEL"><ellipse cx="36.5" cy="387.2969" fill="#F1F1F1" rx="8" ry="8" style="stroke:#181818;stroke-width:0.5;"/><text fill="#000000" font-family="sans-serif" font-size="14" lengthAdjust="spacing" textLength="61" x="6" y="425.292">/cmd_vel</text></g><!--MD5=[e6d9a3d81fc487a20f0b2c2970d6073d]
entity SRV_GOTO_SWITCH--><g id="elem_SRV_GOTO_SWITCH"><ellipse cx="294.5" cy="387.2969" fill="#F1F1F1" rx="8" ry="8" style="stroke:#181818;stroke-width:0.5;"/><text fill="#000000" font-family="sans-serif" font-size="14" lengthAdjust="spacing" textLength="137" x="226" y="425.292">/go_to_point_switch</text></g><!--MD5=[0de5e037182cbe7d3ce53b2ba1c49cc1]
entity SRV_WALL_SWITCH--><g id="elem_SRV_WALL_SWITCH"><ellipse cx="511.5" cy="387.2969" fill="#F1F1F1" rx="8" ry="8" style="stroke:#181818;stroke-width:0.5;"/><text fill="#000000" font-family="sans-serif" font-size="14" lengthAdjust="spacing" textLength="141" x="441" y="425.292">/wall_follower_switch</text></g><!--MD5=[50606cfa1abf67bc0bfa867db0e0c6f4]
reverse link NODE_BUG_M.READ_ODOM to TOPIC_ODOM--><g id="link_NODE_BUG_M.READ_ODOM_TOPIC_ODOM"><path codeLine="15" d="M652.67,216.8569 C665.92,229.6269 679.74,245.0469 689.5,261.2969 C713.49,301.2569 724.07,357.3769 727.33,378.1469 " fill="none" id="NODE_BUG_M.READ_ODOM-backto-TOPIC_ODOM" style="stroke:#181818;stroke-width:1.0;"/><polygon fill="#181818" points="648.95,213.3269,652.7256,222.4233,652.5771,216.7684,658.232,216.6199,648.95,213.3269" style="stroke:#181818;stroke-width:1.0;"/><path d="M716.5,266.2969 L716.5,307.2969 L918.5,307.2969 L918.5,276.2969 L908.5,266.2969 L716.5,266.2969 " fill="#FEFFDD" style="stroke:#181818;stroke-width:0.5;"/><path d="M908.5,266.2969 L908.5,276.2969 L918.5,276.2969 L908.5,266.2969 " fill="#FEFFDD" style="stroke:#181818;stroke-width:0.5;"/><text fill="#000000" font-family="sans-serif" font-size="13" lengthAdjust="spacing" textLength="165" x="730.5" y="291.3638">nav_msgs/Odometry.msg</text><text fill="#000000" font-family="sans-serif" font-size="13" lengthAdjust="spacing" textLength="23" x="620.9692" y="241.6673">sub</text></g><!--MD5=[7d06c8ae2e1af6d4d11e89a8b0079aa3]
reverse link NODE_BUG_M.LISTENER_LASER to TOPIC_LASER--><g id="link_NODE_BUG_M.LISTENER_LASER_TOPIC_LASER"><path codeLine="19" d="M842.59,204.2569 C873.11,216.6769 907.65,235.1969 931.5,261.2969 C964.05,296.9169 976,356.6569 979.38,378.2269 " fill="none" id="NODE_BUG_M.LISTENER_LASER-backto-TOPIC_LASER" style="stroke:#181818;stroke-width:1.0;"/><polygon fill="#181818" points="837.72,202.3169,844.5907,209.3733,842.3624,204.1738,847.5619,201.9455,837.72,202.3169" style="stroke:#181818;stroke-width:1.0;"/><path d="M966.5,266.2969 L966.5,307.2969 L1191.5,307.2969 L1191.5,276.2969 L1181.5,266.2969 L966.5,266.2969 " fill="#FEFFDD" style="stroke:#181818;stroke-width:0.5;"/><path d="M1181.5,266.2969 L1181.5,276.2969 L1191.5,276.2969 L1181.5,266.2969 " fill="#FEFFDD" style="stroke:#181818;stroke-width:0.5;"/><text fill="#000000" font-family="sans-serif" font-size="13" lengthAdjust="spacing" textLength="188" x="980.5" y="291.3638">sensor_msgs/LaserScan.msg</text><text fill="#000000" font-family="sans-serif" font-size="13" lengthAdjust="spacing" textLength="23" x="853.5089" y="191.8068">sub</text></g><!--MD5=[2cbf74590d6c00b3fca55a4630363409]
link NODE_BUG_M to TOPIC_VEL--><g id="link_NODE_BUG_M_TOPIC_VEL"><path codeLine="23" d="M503.2888,183.6225 C503.0578,183.6324 502.8222,183.6425 502.582,183.6529 C502.1017,183.6737 501.6032,183.6955 501.0869,183.7182 C499.0214,183.8092 496.6701,183.9162 494.0522,184.0403 C483.5809,184.5366 468.8459,185.3073 451.0923,186.4295 C415.5853,188.6741 368.0044,192.325 318.3113,198.0006 C218.925,209.3519 111.09,228.8019 74.5,261.2969 C41.7,290.4169 36.77,346.8669 36.32,372.7469 " fill="none" id="NODE_BUG_M-to-TOPIC_VEL" style="stroke:#181818;stroke-width:1.0;"/><polygon fill="#181818" points="36.29,378.0669,40.3414,369.0899,36.3186,373.067,32.3415,369.0442,36.29,378.0669" style="stroke:#181818;stroke-width:1.0;"/><path d="M79.5,266.2969 L79.5,307.2969 L287.5,307.2969 L287.5,276.2969 L277.5,266.2969 L79.5,266.2969 " fill="#FEFFDD" style="stroke:#181818;stroke-width:0.5;"/><path d="M277.5,266.2969 L277.5,276.2969 L287.5,276.2969 L277.5,266.2969 " fill="#FEFFDD" style="stroke:#181818;stroke-width:0.5;"/><text fill="#000000" font-family="sans-serif" font-size="13" lengthAdjust="spacing" textLength="171" x="93.5" y="291.3638">geometry_msgs/Twist.msg</text><text fill="#000000" font-family="sans-serif" font-size="13" lengthAdjust="spacing" textLength="24" x="479.43" y="172.3638">pub</text></g><!--MD5=[d2b55514db171e2cbb2b77beeba89690]
reverse link NODE_BUG_M to SRV_GOTO_SWITCH--><g id="link_NODE_BUG_M_SRV_GOTO_SWITCH"><path codeLine="27" d="M503.4148,184.0809 C503.2826,184.0957 503.1488,184.1107 503.0137,184.126 C502.473,184.1871 501.909,184.2523 501.3224,184.3216 C500.1491,184.4602 498.8855,184.6155 497.5373,184.789 C494.8408,185.136 491.8061,185.5555 488.4798,186.0597 C475.1747,188.0763 457.2044,191.4456 437.5588,196.9294 C398.2675,207.8969 352.275,227.3219 323.5,261.2969 C293.7,296.4869 293.13,356.4969 294,378.1769 " fill="none" id="NODE_BUG_M-backto-SRV_GOTO_SWITCH" style="stroke:#181818;stroke-width:1.0;"/><polygon fill="#181818" points="503.4148,184.0809,494.0258,181.1064,498.4458,184.6368,494.9154,189.0568,503.4148,184.0809" style="stroke:#181818;stroke-width:1.0;"/><path d="M328.5,266.2969 L328.5,307.2969 L495.5,307.2969 L495.5,276.2969 L485.5,266.2969 L328.5,266.2969 " fill="#FEFFDD" style="stroke:#181818;stroke-width:0.5;"/><path d="M485.5,266.2969 L485.5,276.2969 L495.5,276.2969 L485.5,266.2969 " fill="#FEFFDD" style="stroke:#181818;stroke-width:0.5;"/><text fill="#000000" font-family="sans-serif" font-size="13" lengthAdjust="spacing" textLength="130" x="342.5" y="291.3638">std_srvs/SetBool.srv</text><text fill="#000000" font-family="sans-serif" font-size="13" lengthAdjust="spacing" textLength="10" x="493.41" y="203.3738">cl</text></g><!--MD5=[7fa9dd9e3b991b909dd28aede12b03b9]
reverse link NODE_BUG_M to SRV_WALL_SWITCH--><g id="link_NODE_BUG_M_SRV_WALL_SWITCH"><path codeLine="31" d="M509.1534,237.3531 C509.1488,237.4891 509.1443,237.6252 509.1397,237.7613 C509.1306,238.0335 509.1215,238.3059 509.1124,238.5785 C509.0762,239.6686 509.0408,240.7609 509.0062,241.8539 C508.937,244.04 508.8712,246.229 508.8098,248.4094 C508.6869,252.7703 508.5812,257.0969 508.5,261.2969 C508.06,283.9569 508.04,289.6369 508.5,312.2969 C508.98,336.2069 510.35,364.4369 511.06,378.0869 " fill="none" id="NODE_BUG_M-backto-SRV_WALL_SWITCH" style="stroke:#181818;stroke-width:1.0;"/><polygon fill="#181818" points="509.1534,237.3531,504.852,246.213,508.9847,242.3502,512.8475,246.4829,509.1534,237.3531" style="stroke:#181818;stroke-width:1.0;"/><path d="M513.5,266.2969 L513.5,307.2969 L680.5,307.2969 L680.5,276.2969 L670.5,266.2969 L513.5,266.2969 " fill="#FEFFDD" style="stroke:#181818;stroke-width:0.5;"/><path d="M670.5,266.2969 L670.5,276.2969 L680.5,276.2969 L670.5,266.2969 " fill="#FEFFDD" style="stroke:#181818;stroke-width:0.5;"/><text fill="#000000" font-family="sans-serif" font-size="13" lengthAdjust="spacing" textLength="130" x="527.5" y="291.3638">std_srvs/SetBool.srv</text><text fill="#000000" font-family="sans-serif" font-size="13" lengthAdjust="spacing" textLength="10" x="519.49" y="203.4938">cl</text></g><!--MD5=[3960ed24e8e28498da19f86d23e5296c]
@startuml

''' INFOS
title NODE bug_m
skinparam Padding 8
allow_mixing


''' COMPONENTS
component "bug_m" <<ROSPy node>> as NODE_BUG_M {
	node "clbk_odom" as NODE_BUG_M.READ_ODOM
	node "clbk_laser" as NODE_BUG_M.LISTENER_LASER
}

() "/odom" as TOPIC_ODOM
NODE_BUG_M.READ_ODOM "sub" <- - TOPIC_ODOM
note on link: nav_msgs/Odometry.msg

() "/scan" as TOPIC_LASER
NODE_BUG_M.LISTENER_LASER "sub" <- - TOPIC_LASER
note on link: sensor_msgs/LaserScan.msg

() "/cmd_vel" as TOPIC_VEL
NODE_BUG_M "pub" - -> TOPIC_VEL
note on link: geometry_msgs/Twist.msg

() "/go_to_point_switch" as SRV_GOTO_SWITCH
NODE_BUG_M "cl" <- - SRV_GOTO_SWITCH
note on link: std_srvs/SetBool.srv

() "/wall_follower_switch" as SRV_WALL_SWITCH
NODE_BUG_M "cl" <- - SRV_WALL_SWITCH
note on link: std_srvs/SetBool.srv

@enduml

@startuml

title NODE bug_m
skinparam Padding 8
allow_mixing


component "bug_m" <<ROSPy node>> as NODE_BUG_M {
	node "clbk_odom" as NODE_BUG_M.READ_ODOM
	node "clbk_laser" as NODE_BUG_M.LISTENER_LASER
}

() "/odom" as TOPIC_ODOM
NODE_BUG_M.READ_ODOM "sub" <- - TOPIC_ODOM
note on link: nav_msgs/Odometry.msg

() "/scan" as TOPIC_LASER
NODE_BUG_M.LISTENER_LASER "sub" <- - TOPIC_LASER
note on link: sensor_msgs/LaserScan.msg

() "/cmd_vel" as TOPIC_VEL
NODE_BUG_M "pub" - -> TOPIC_VEL
note on link: geometry_msgs/Twist.msg

() "/go_to_point_switch" as SRV_GOTO_SWITCH
NODE_BUG_M "cl" <- - SRV_GOTO_SWITCH
note on link: std_srvs/SetBool.srv

() "/wall_follower_switch" as SRV_WALL_SWITCH
NODE_BUG_M "cl" <- - SRV_WALL_SWITCH
note on link: std_srvs/SetBool.srv

@enduml

PlantUML version 1.2022.6(Tue Jun 21 17:34:49 UTC 2022)
(GPL source distribution)
Java Runtime: Java(TM) SE Runtime Environment
JVM: Java HotSpot(TM) 64-Bit Server VM
Default Encoding: UTF-8
Language: en
Country: US
--></g></svg>