<?xml version="1.0" encoding="UTF-8" standalone="no"?><svg xmlns="http://www.w3.org/2000/svg" xmlns:xlink="http://www.w3.org/1999/xlink" contentStyleType="text/css" height="210px" preserveAspectRatio="none" style="width:2239px;height:210px;background:#FFFFFF;" version="1.1" viewBox="0 0 2239 210" width="2239px" zoomAndPan="magnify"><defs/><g><rect height="26.2969" style="stroke:#00000000;stroke-width:1.0;fill:none;" width="276" x="974.5" y="5"/><text fill="#000000" font-family="sans-serif" font-size="14" font-weight="bold" lengthAdjust="spacing" textLength="266" x="979.5" y="22.9951">Manipulation unit - RCL#2 version</text><!--MD5=[d1ae09893749e13829ffe88f2c355975]
entity MANIP_ROSPLAN--><g id="elem_MANIP_ROSPLAN"><rect fill="#F1F1F1" height="62.5938" rx="2.5" ry="2.5" style="stroke:#181818;stroke-width:0.5;" width="203" x="2030" y="94.2969"/><rect fill="#F1F1F1" height="10" style="stroke:#181818;stroke-width:0.5;" width="15" x="2213" y="99.2969"/><rect fill="#F1F1F1" height="2" style="stroke:#181818;stroke-width:0.5;" width="4" x="2211" y="101.2969"/><rect fill="#F1F1F1" height="2" style="stroke:#181818;stroke-width:0.5;" width="4" x="2211" y="105.2969"/><text fill="#000000" font-family="sans-serif" font-size="14" font-style="italic" lengthAdjust="spacing" textLength="163" x="2045" y="127.292">«RCL ROSPlan Actions»</text><text fill="#000000" font-family="sans-serif" font-size="14" lengthAdjust="spacing" textLength="115" x="2069" y="143.5889">MANIP_ROSPLAN</text></g><!--MD5=[0ff8cde09c95e7bd5ad5c1a367aa2e4a]
entity ORACLE--><g id="elem_ORACLE"><rect fill="#F1F1F1" height="62.5938" rx="2.5" ry="2.5" style="stroke:#181818;stroke-width:0.5;" width="96" x="75.5" y="142.2969"/><rect fill="#F1F1F1" height="10" style="stroke:#181818;stroke-width:0.5;" width="15" x="151.5" y="147.2969"/><rect fill="#F1F1F1" height="2" style="stroke:#181818;stroke-width:0.5;" width="4" x="149.5" y="149.2969"/><rect fill="#F1F1F1" height="2" style="stroke:#181818;stroke-width:0.5;" width="4" x="149.5" y="153.2969"/><text fill="#000000" font-family="sans-serif" font-size="14" font-style="italic" lengthAdjust="spacing" textLength="44" x="96.5" y="175.292">«erl2»</text><text fill="#000000" font-family="sans-serif" font-size="14" lengthAdjust="spacing" textLength="56" x="90.5" y="191.5889">ORACLE</text></g><!--MD5=[85f7837dfbb1d6f968ca872290da27d1]
entity MANIP_UNIT--><g id="elem_MANIP_UNIT"><rect fill="#F1F1F1" height="62.5938" rx="2.5" ry="2.5" style="stroke:#181818;stroke-width:0.5;" width="205" x="1098" y="94.2969"/><rect fill="#F1F1F1" height="10" style="stroke:#181818;stroke-width:0.5;" width="15" x="1283" y="99.2969"/><rect fill="#F1F1F1" height="2" style="stroke:#181818;stroke-width:0.5;" width="4" x="1281" y="101.2969"/><rect fill="#F1F1F1" height="2" style="stroke:#181818;stroke-width:0.5;" width="4" x="1281" y="105.2969"/><text fill="#000000" font-family="sans-serif" font-size="14" font-style="italic" lengthAdjust="spacing" textLength="165" x="1113" y="127.292">«RCL Mission Manager»</text><text fill="#000000" font-family="sans-serif" font-size="14" lengthAdjust="spacing" textLength="82" x="1154.5" y="143.5889">MANIP_UNIT</text></g><!--MD5=[08cc7d4539ff28073d80f2d3c7c18a19]
entity MANIP_CONTROLLER--><g id="elem_MANIP_CONTROLLER"><rect fill="#F1F1F1" height="62.5938" rx="2.5" ry="2.5" style="stroke:#181818;stroke-width:0.5;" width="233" x="7" y="44.2969"/><rect fill="#F1F1F1" height="10" style="stroke:#181818;stroke-width:0.5;" width="15" x="220" y="49.2969"/><rect fill="#F1F1F1" height="2" style="stroke:#181818;stroke-width:0.5;" width="4" x="218" y="51.2969"/><rect fill="#F1F1F1" height="2" style="stroke:#181818;stroke-width:0.5;" width="4" x="218" y="55.2969"/><text fill="#000000" font-family="sans-serif" font-size="14" font-style="italic" lengthAdjust="spacing" textLength="193" x="22" y="77.292">«RCL Movement Controller»</text><text fill="#000000" font-family="sans-serif" font-size="14" lengthAdjust="spacing" textLength="144" x="46.5" y="93.5889">MANIP_CONTROLLER</text></g><!--MD5=[e96f014122c08a9c0b7a9b7b46c6aa53]
entity SRV_ROSPLAN_MANIP--><g id="elem_SRV_ROSPLAN_MANIP"><ellipse cx="1838" cy="125.7969" fill="#F1F1F1" rx="8" ry="8" style="stroke:#181818;stroke-width:0.5;"/><text fill="#000000" font-family="sans-serif" font-size="14" lengthAdjust="spacing" textLength="246" x="1715" y="155.792">/robocluedo/manipulator_command</text></g><!--MD5=[bc367bcd7c3b1c01d40cff759d9fea2e]
entity SRV_MANIP--><g id="elem_SRV_MANIP"><ellipse cx="790" cy="76.7969" fill="#F1F1F1" rx="8" ry="8" style="stroke:#181818;stroke-width:0.5;"/><text fill="#000000" font-family="sans-serif" font-size="14" lengthAdjust="spacing" textLength="55" x="762.5" y="106.792">/tip_pos</text></g><!--MD5=[ceb15c202ed4555ce72fa6ba8e7932f0]
entity TOPIC_MARKERS--><g id="elem_TOPIC_MARKERS"><ellipse cx="790" cy="171.7969" fill="#F1F1F1" rx="8" ry="8" style="stroke:#181818;stroke-width:0.5;"/><text fill="#000000" font-family="sans-serif" font-size="14" lengthAdjust="spacing" textLength="143" x="718.5" y="201.792">/visualization_marker</text></g><!--MD5=[57d14befd1e108826620b4116f6bd38a]
link MANIP_UNIT to SRV_ROSPLAN_MANIP--><g id="link_MANIP_UNIT_SRV_ROSPLAN_MANIP"><path d="M1303.25,125.7969 C1461.87,125.7969 1756.83,125.7969 1823.41,125.7969 " fill="none" id="MANIP_UNIT-to-SRV_ROSPLAN_MANIP" style="stroke:#181818;stroke-width:1.0;"/><polygon fill="#181818" points="1828.81,125.7969,1819.81,121.7969,1823.81,125.7969,1819.81,129.7969,1828.81,125.7969" style="stroke:#181818;stroke-width:1.0;"/><text fill="#000000" font-family="sans-serif" font-size="13" lengthAdjust="spacing" textLength="342" x="1334" y="121.8638">robocluedo_rosplan_msgs/ManipulationCommand.srv</text><text fill="#000000" font-family="sans-serif" font-size="13" lengthAdjust="spacing" textLength="19" x="1311.1426" y="138.4101">srv</text></g><!--MD5=[de890e198b52b4734a2a4e170114349c]
link MANIP_CONTROLLER to SRV_MANIP--><g id="link_MANIP_CONTROLLER_SRV_MANIP"><path d="M240.25,75.9669 C408.79,76.2269 708.98,76.6769 775.64,76.7769 " fill="none" id="MANIP_CONTROLLER-to-SRV_MANIP" style="stroke:#181818;stroke-width:1.0;"/><polygon fill="#181818" points="780.7,76.7869,771.7115,72.7612,775.7,76.7726,771.6886,80.7611,780.7,76.7869" style="stroke:#181818;stroke-width:1.0;"/><text fill="#000000" font-family="sans-serif" font-size="13" lengthAdjust="spacing" textLength="409" x="271" y="72.8638">robocluedo_movement_controller_msgs/ManipulatorPosition.srv</text><text fill="#000000" font-family="sans-serif" font-size="13" lengthAdjust="spacing" textLength="19" x="247.9434" y="88.5176">srv</text></g><!--MD5=[bfeea40f90baa985e2262f439d4180c1]
link ORACLE to TOPIC_MARKERS--><g id="link_ORACLE_TOPIC_MARKERS"><path d="M171.76,173.6569 C308.15,173.2469 697.72,172.0669 775.42,171.8369 " fill="none" id="ORACLE-to-TOPIC_MARKERS" style="stroke:#181818;stroke-width:1.0;"/><polygon fill="#181818" points="780.85,171.8169,771.8386,167.8426,775.85,171.8312,771.8615,175.8426,780.85,171.8169" style="stroke:#181818;stroke-width:1.0;"/><text fill="#000000" font-family="sans-serif" font-size="13" lengthAdjust="spacing" textLength="234" x="358.5" y="168.8638">visualization_msgs/MarkerArray.msg</text><text fill="#000000" font-family="sans-serif" font-size="13" lengthAdjust="spacing" textLength="24" x="179.4808" y="186.7013">pub</text></g><!--MD5=[0503cdd283810d0e69a18f5f16054b61]
link SRV_ROSPLAN_MANIP to MANIP_ROSPLAN--><g id="link_SRV_ROSPLAN_MANIP_MANIP_ROSPLAN"><path d="M1847.1,125.7969 C1872.82,125.7969 1955.02,125.7969 2024.31,125.7969 " fill="none" id="SRV_ROSPLAN_MANIP-to-MANIP_ROSPLAN" style="stroke:#181818;stroke-width:1.0;"/><polygon fill="#181818" points="2029.7,125.7969,2020.7,121.7969,2024.7,125.7969,2020.7,129.7969,2029.7,125.7969" style="stroke:#181818;stroke-width:1.0;"/><text fill="#000000" font-family="sans-serif" font-size="13" lengthAdjust="spacing" textLength="10" x="2011.8569" y="138.4343">cl</text></g><!--MD5=[fc049d8e1672375d7d46a8f4c80217b6]
link SRV_MANIP to MANIP_UNIT--><g id="link_SRV_MANIP_MANIP_UNIT"><path d="M799.16,77.7569 C832.51,81.7069 961.74,97.0069 1068,109.7969 C1076.04,110.7669 1084.35,111.7669 1092.71,112.7769 " fill="none" id="SRV_MANIP-to-MANIP_UNIT" style="stroke:#181818;stroke-width:1.0;"/><polygon fill="#181818" points="1097.92,113.4069,1089.4659,108.3544,1092.9562,112.8061,1088.5046,116.2964,1097.92,113.4069" style="stroke:#181818;stroke-width:1.0;"/><text fill="#000000" font-family="sans-serif" font-size="13" lengthAdjust="spacing" textLength="10" x="1080.0196" y="125.1345">cl</text></g><!--MD5=[f1fadcfc907e0e7aff8360e0cbf697d9]
link TOPIC_MARKERS to MANIP_UNIT--><g id="link_TOPIC_MARKERS_MANIP_UNIT"><path d="M799.19,171.3869 C832.64,169.6569 962.23,162.4069 1068,148.7969 C1076,147.7669 1084.25,146.5969 1092.53,145.3369 " fill="none" id="TOPIC_MARKERS-to-MANIP_UNIT" style="stroke:#181818;stroke-width:1.0;"/><polygon fill="#181818" points="1097.7,144.5369,1088.1981,141.9457,1092.7576,145.2939,1089.4094,149.8535,1097.7,144.5369" style="stroke:#181818;stroke-width:1.0;"/><path d="M904,118.7969 L904,143.7969 L1063,143.7969 L1063,128.7969 L1053,118.7969 L904,118.7969 " fill="#FEFFDD" style="stroke:#181818;stroke-width:0.5;"/><path d="M1053,118.7969 L1053,128.7969 L1063,128.7969 L1053,118.7969 " fill="#FEFFDD" style="stroke:#181818;stroke-width:0.5;"/><text fill="#000000" font-family="sans-serif" font-size="13" lengthAdjust="spacing" textLength="138" x="910" y="135.8638">one-shot subscription</text><text fill="#000000" font-family="sans-serif" font-size="13" lengthAdjust="spacing" textLength="23" x="1067.0205" y="158.3849">sub</text></g><!--MD5=[69b1250540cb2277441dcdba92b6ca62]
@startuml

title Manipulation unit - RCL#2 version
left to right direction

component MANIP_ROSPLAN <<RCL ROSPlan Actions>>
component ORACLE <<erl2>>
component MANIP_UNIT <<RCL Mission Manager>>
component MANIP_CONTROLLER <<RCL Movement Controller>>

() "/robocluedo/manipulator_command" as SRV_ROSPLAN_MANIP
() "/tip_pos" as SRV_MANIP
() "/visualization_marker" as TOPIC_MARKERS

MANIP_UNIT "srv" - -> SRV_ROSPLAN_MANIP : robocluedo_rosplan_msgs/ManipulationCommand.srv
MANIP_CONTROLLER "srv" - -> SRV_MANIP : robocluedo_movement_controller_msgs/ManipulatorPosition.srv
ORACLE "pub" - -> TOPIC_MARKERS : visualization_msgs/MarkerArray.msg

SRV_ROSPLAN_MANIP - -> "cl" MANIP_ROSPLAN
SRV_MANIP - -> "cl" MANIP_UNIT
TOPIC_MARKERS - -> "sub" MANIP_UNIT
note on link: one-shot subscription

@enduml

PlantUML version 1.2022.6(Tue Jun 21 17:34:49 UTC 2022)
(GPL source distribution)
Java Runtime: Java(TM) SE Runtime Environment
JVM: Java HotSpot(TM) 64-Bit Server VM
Default Encoding: UTF-8
Language: en
Country: US
--></g></svg>