<?xml version="1.0" encoding="UTF-8" standalone="no"?><svg xmlns="http://www.w3.org/2000/svg" xmlns:xlink="http://www.w3.org/1999/xlink" contentStyleType="text/css" height="433px" preserveAspectRatio="none" style="width:1214px;height:433px;background:#FFFFFF;" version="1.1" viewBox="0 0 1214 433" width="1214px" zoomAndPan="magnify"><defs/><g><rect height="42.2969" style="stroke:#00000000;stroke-width:1.0;fill:none;" width="233" x="483.5" y="5"/><text fill="#000000" font-family="sans-serif" font-size="14" font-weight="bold" lengthAdjust="spacing" textLength="207" x="496.5" y="30.9951">(erl2) node simulation.cpp</text><!--MD5=[33212273abe26724ff1e731702c8f505]
cluster ORACLE--><g id="cluster_ORACLE"><rect height="177" rx="2.5" ry="2.5" style="stroke:#181818;stroke-width:1.0;fill:none;" width="223" x="578" y="60.2969"/><rect height="10" style="stroke:#181818;stroke-width:1.0;fill:none;" width="15" x="781" y="65.2969"/><rect height="2" style="stroke:#181818;stroke-width:1.0;fill:none;" width="4" x="779" y="67.2969"/><rect height="2" style="stroke:#181818;stroke-width:1.0;fill:none;" width="4" x="779" y="71.2969"/><text fill="#000000" font-family="sans-serif" font-size="14" font-style="italic" lengthAdjust="spacing" textLength="92" x="643.5" y="94.292">«ERL Oracle»</text><text fill="#000000" font-family="sans-serif" font-size="14" font-weight="bold" lengthAdjust="spacing" textLength="114" x="632.5" y="126.5889">simulation.cpp</text></g><!--MD5=[3a78b7570f334d204b4d0cf6757a201e]
entity ORACLE.ORACLE_CALLBACK--><g id="elem_ORACLE.ORACLE_CALLBACK"><polygon fill="#F1F1F1" points="602.5,161.2969,612.5,151.2969,757.5,151.2969,757.5,203.5938,747.5,213.5938,602.5,213.5938,602.5,161.2969" style="stroke:#181818;stroke-width:0.5;"/><line style="stroke:#181818;stroke-width:0.5;" x1="747.5" x2="757.5" y1="161.2969" y2="151.2969"/><line style="stroke:#181818;stroke-width:0.5;" x1="602.5" x2="747.5" y1="161.2969" y2="161.2969"/><line style="stroke:#181818;stroke-width:0.5;" x1="747.5" x2="747.5" y1="161.2969" y2="213.5938"/><text fill="#000000" font-family="sans-serif" font-size="14" lengthAdjust="spacing" textLength="99" x="625.5" y="192.292">oracleCallback</text></g><g id="elem_GMN4"><path d="M6,161.7969 L6,202.9297 A0,0 0 0 0 6,202.9297 L554,202.9297 A0,0 0 0 0 554,202.9297 L554,186.2969 L602.37,182.2969 L554,178.2969 L554,171.7969 L544,161.7969 L6,161.7969 A0,0 0 0 0 6,161.7969 " fill="#FEFFDD" style="stroke:#181818;stroke-width:0.5;"/><path d="M544,161.7969 L544,171.7969 L554,171.7969 L544,161.7969 " fill="#FEFFDD" style="stroke:#181818;stroke-width:0.5;"/><text fill="#000000" font-family="sans-serif" font-size="13" lengthAdjust="spacing" textLength="511" x="20" y="186.8638">to trigger the message, the link "cluedo_link" must be at a distance up to 0.25m</text></g><!--MD5=[c5530b1eb0d2b01858bf10ddfa8d1792]
entity SRV_MARKER--><g id="elem_SRV_MARKER"><ellipse cx="825" cy="387.2969" fill="#F1F1F1" rx="8" ry="8" style="stroke:#181818;stroke-width:0.5;"/><text fill="#000000" font-family="sans-serif" font-size="14" lengthAdjust="spacing" textLength="143" x="753.5" y="425.292">/visualization_marker</text></g><!--MD5=[fcd41c5334bc317cf1103d6cb296c7d2]
entity SRV_ORACLE_SOLUTION--><g id="elem_SRV_ORACLE_SOLUTION"><ellipse cx="1113" cy="387.2969" fill="#F1F1F1" rx="8" ry="8" style="stroke:#181818;stroke-width:0.5;"/><text fill="#000000" font-family="sans-serif" font-size="14" lengthAdjust="spacing" textLength="109" x="1058.5" y="425.292">/oracle_solution</text></g><!--MD5=[fa462773b65741fd187f00efcdea9233]
entity TOPIC_GAZEBO_LINKS--><g id="elem_TOPIC_GAZEBO_LINKS"><ellipse cx="402" cy="387.2969" fill="#F1F1F1" rx="8" ry="8" style="stroke:#181818;stroke-width:0.5;"/><text fill="#000000" font-family="sans-serif" font-size="14" lengthAdjust="spacing" textLength="135" x="334.5" y="425.292">/gazebo/link_states</text></g><!--MD5=[545526249eacd936497d39018a0ab440]
entity TOPIC_HINT--><g id="elem_TOPIC_HINT"><ellipse cx="647" cy="387.2969" fill="#F1F1F1" rx="8" ry="8" style="stroke:#181818;stroke-width:0.5;"/><text fill="#000000" font-family="sans-serif" font-size="14" lengthAdjust="spacing" textLength="80" x="607" y="425.292">/oracle_hint</text></g><!--MD5=[95e405003c5ee7e958f6f4bd978b36f4]
link ORACLE to SRV_MARKER--><g id="link_ORACLE_SRV_MARKER"><path codeLine="17" d="M801.0962,234.6541 C801.1418,234.9431 801.1875,235.2328 801.2332,235.5233 C801.3248,236.1042 801.4169,236.6879 801.5093,237.2744 C801.6942,238.4473 801.8809,239.6312 802.0691,240.8251 C802.4456,243.213 802.8284,245.6411 803.2164,248.1025 C803.9925,253.0254 804.7895,258.0813 805.5988,263.2144 C812.0725,304.2794 819.325,350.2869 822.85,372.6369 " fill="none" id="ORACLE-to-SRV_MARKER" style="stroke:#181818;stroke-width:1.0;stroke-dasharray:7.0,7.0;"/><polygon fill="#181818" points="823.67,377.8369,826.2075,368.3205,822.8851,372.8989,818.3067,369.5764,823.67,377.8369" style="stroke:#181818;stroke-width:1.0;"/><path d="M817,266.2969 L817,307.2969 L1056,307.2969 L1056,276.2969 L1046,266.2969 L817,266.2969 " fill="#FEFFDD" style="stroke:#181818;stroke-width:0.5;"/><path d="M1046,266.2969 L1046,276.2969 L1056,276.2969 L1046,266.2969 " fill="#FEFFDD" style="stroke:#181818;stroke-width:0.5;"/><text fill="#000000" font-family="sans-serif" font-size="13" lengthAdjust="spacing" textLength="202" x="831" y="291.3638">visualization_msgs/MarkerArray</text><text fill="#000000" font-family="sans-serif" font-size="13" lengthAdjust="spacing" textLength="24" x="801.02" y="203.5138">pub</text></g><!--MD5=[a54934ef0a174fdfa014cf5870edac79]
link ORACLE to SRV_ORACLE_SOLUTION--><g id="link_ORACLE_SRV_ORACLE_SOLUTION"><path codeLine="21" d="M801.3139,183.0618 C801.4759,183.0593 801.6401,183.0569 801.8065,183.0546 C802.1393,183.0499 802.4808,183.0455 802.8309,183.0414 C808.4322,182.9759 816.2316,182.9924 825.7202,183.288 C844.6972,183.8791 870.4306,185.5863 898.8488,189.9856 C955.685,198.7844 1023.26,218.3519 1069,261.2969 C1101.43,291.7469 1109.97,347.5169 1112.21,372.9869 " fill="none" id="ORACLE-to-SRV_ORACLE_SOLUTION" style="stroke:#181818;stroke-width:1.0;"/><polygon fill="#181818" points="1112.62,378.2169,1115.9139,368.9352,1112.2343,373.2318,1107.9377,369.5522,1112.62,378.2169" style="stroke:#181818;stroke-width:1.0;"/><path d="M1103,266.2969 L1103,307.2969 L1207,307.2969 L1207,276.2969 L1197,266.2969 L1103,266.2969 " fill="#FEFFDD" style="stroke:#181818;stroke-width:0.5;"/><path d="M1197,266.2969 L1197,276.2969 L1207,276.2969 L1197,266.2969 " fill="#FEFFDD" style="stroke:#181818;stroke-width:0.5;"/><text fill="#000000" font-family="sans-serif" font-size="13" lengthAdjust="spacing" textLength="67" x="1117" y="291.3638">erl2/oracle</text><text fill="#000000" font-family="sans-serif" font-size="13" lengthAdjust="spacing" textLength="19" x="801.13" y="172.3538">srv</text></g><!--MD5=[c96a2a03d6ce4e0a2b398a9952704977]
reverse link ORACLE.ORACLE_CALLBACK to TOPIC_GAZEBO_LINKS--><g id="link_ORACLE.ORACLE_CALLBACK_TOPIC_GAZEBO_LINKS"><path codeLine="25" d="M639.68,216.5269 C620.4,230.4769 596.27,245.2969 572,253.2969 C544.72,262.2869 465.73,243.7369 443,261.2969 C405.23,290.4869 401.8,355.3269 401.82,378.1569 " fill="none" id="ORACLE.ORACLE_CALLBACK-backto-TOPIC_GAZEBO_LINKS" style="stroke:#181818;stroke-width:1.0;stroke-dasharray:7.0,7.0;"/><polygon fill="#181818" points="643.97,213.3769,634.3479,215.478,639.9393,216.3356,639.0818,221.927,643.97,213.3769" style="stroke:#181818;stroke-width:1.0;"/><path d="M448,266.2969 L448,307.2969 L645,307.2969 L645,276.2969 L635,266.2969 L448,266.2969 " fill="#FEFFDD" style="stroke:#181818;stroke-width:0.5;"/><path d="M635,266.2969 L635,276.2969 L645,276.2969 L635,266.2969 " fill="#FEFFDD" style="stroke:#181818;stroke-width:0.5;"/><text fill="#000000" font-family="sans-serif" font-size="13" lengthAdjust="spacing" textLength="160" x="462" y="291.3638">gazebo_msgs/LinkStates</text><text fill="#000000" font-family="sans-serif" font-size="13" lengthAdjust="spacing" textLength="23" x="603.0787" y="241.7262">sub</text></g><!--MD5=[9d5be747021d84c52a29d7c8659565a8]
link ORACLE.ORACLE_CALLBACK to TOPIC_HINT--><g id="link_ORACLE.ORACLE_CALLBACK_TOPIC_HINT"><path codeLine="29" d="M674.36,213.6369 C671.73,228.0569 668.61,245.5569 666,261.2969 C659.26,301.9969 652.17,350.3069 648.88,373.1169 " fill="none" id="ORACLE.ORACLE_CALLBACK-to-TOPIC_HINT" style="stroke:#181818;stroke-width:1.0;"/><polygon fill="#181818" points="648.17,378.0969,653.4161,369.7615,648.8851,373.1483,645.4983,368.6173,648.17,378.0969" style="stroke:#181818;stroke-width:1.0;"/><path d="M671,266.2969 L671,307.2969 L793,307.2969 L793,276.2969 L783,266.2969 L671,266.2969 " fill="#FEFFDD" style="stroke:#181818;stroke-width:0.5;"/><path d="M783,266.2969 L783,276.2969 L793,276.2969 L783,266.2969 " fill="#FEFFDD" style="stroke:#181818;stroke-width:0.5;"/><text fill="#000000" font-family="sans-serif" font-size="13" lengthAdjust="spacing" textLength="85" x="685" y="291.3638">erl2/ErlOracle</text><text fill="#000000" font-family="sans-serif" font-size="13" lengthAdjust="spacing" textLength="24" x="684.8281" y="241.7403">pub</text></g><!--MD5=[ab9b32058b87b222f0c5e23ef9516921]
@startuml

''' INFOS
title (erl2) node simulation.cpp
skinparam Padding 8
allow_mixing

component "simulation.cpp" <<ERL Oracle>> as ORACLE {
	node "oracleCallback" as ORACLE.ORACLE_CALLBACK
	' to trigger the message, the link "cluedo_link" must be at a distance up to 0.25m
}

note left of ORACLE.ORACLE_CALLBACK
	to trigger the message, the link "cluedo_link" must be at a distance up to 0.25m
end note

() "/visualization_marker" as SRV_MARKER
ORACLE "pub" ..> SRV_MARKER
note on link: visualization_msgs/MarkerArray

() "/oracle_solution" as SRV_ORACLE_SOLUTION
ORACLE "srv" - -> SRV_ORACLE_SOLUTION
note on link: erl2/oracle

() "/gazebo/link_states" as TOPIC_GAZEBO_LINKS
ORACLE.ORACLE_CALLBACK "sub" <.. TOPIC_GAZEBO_LINKS
note on link: gazebo_msgs/LinkStates

() "/oracle_hint" as TOPIC_HINT
ORACLE.ORACLE_CALLBACK "pub" - -> TOPIC_HINT
note on link: erl2/ErlOracle

@enduml

@startuml

title (erl2) node simulation.cpp
skinparam Padding 8
allow_mixing

component "simulation.cpp" <<ERL Oracle>> as ORACLE {
	node "oracleCallback" as ORACLE.ORACLE_CALLBACK
}

note left of ORACLE.ORACLE_CALLBACK
	to trigger the message, the link "cluedo_link" must be at a distance up to 0.25m
end note

() "/visualization_marker" as SRV_MARKER
ORACLE "pub" ..> SRV_MARKER
note on link: visualization_msgs/MarkerArray

() "/oracle_solution" as SRV_ORACLE_SOLUTION
ORACLE "srv" - -> SRV_ORACLE_SOLUTION
note on link: erl2/oracle

() "/gazebo/link_states" as TOPIC_GAZEBO_LINKS
ORACLE.ORACLE_CALLBACK "sub" <.. TOPIC_GAZEBO_LINKS
note on link: gazebo_msgs/LinkStates

() "/oracle_hint" as TOPIC_HINT
ORACLE.ORACLE_CALLBACK "pub" - -> TOPIC_HINT
note on link: erl2/ErlOracle

@enduml

PlantUML version 1.2022.6(Tue Jun 21 17:34:49 UTC 2022)
(GPL source distribution)
Java Runtime: Java(TM) SE Runtime Environment
JVM: Java HotSpot(TM) 64-Bit Server VM
Default Encoding: UTF-8
Language: en
Country: US
--></g></svg>