<?xml version="1.0" encoding="UTF-8" standalone="no"?><svg xmlns="http://www.w3.org/2000/svg" xmlns:xlink="http://www.w3.org/1999/xlink" contentStyleType="text/css" height="433px" preserveAspectRatio="none" style="width:954px;height:433px;background:#FFFFFF;" version="1.1" viewBox="0 0 954 433" width="954px" zoomAndPan="magnify"><defs/><g><rect height="42.2969" style="stroke:#00000000;stroke-width:1.0;fill:none;" width="164" x="388.25" y="5"/><text fill="#000000" font-family="sans-serif" font-size="14" font-weight="bold" lengthAdjust="spacing" textLength="138" x="401.25" y="30.9951">NODE go_to_point</text><!--MD5=[39c4eee9471449e046008ca5703679c3]
cluster PARAMETERS--><g id="cluster_PARAMETERS"><path d="M611.5,95.2969 C611.5,85.2969 774.5,85.2969 774.5,85.2969 C774.5,85.2969 937.5,85.2969 937.5,95.2969 L937.5,219.2969 C937.5,229.2969 774.5,229.2969 774.5,229.2969 C774.5,229.2969 611.5,229.2969 611.5,219.2969 L611.5,95.2969 " style="stroke:#181818;stroke-width:1.0;fill:none;"/><path d="M611.5,95.2969 C611.5,105.2969 774.5,105.2969 774.5,105.2969 C774.5,105.2969 937.5,105.2969 937.5,95.2969 " fill="none" style="stroke:#181818;stroke-width:1.0;"/><text fill="#000000" font-family="sans-serif" font-size="14" font-weight="bold" lengthAdjust="spacing" textLength="176" x="686.5" y="128.292">ROS parameter server</text></g><!--MD5=[df00c08cd854dd1b88de766977ab372e]
cluster NODE_GO_TO_POINT--><g id="cluster_NODE_GO_TO_POINT"><rect height="177" rx="2.5" ry="2.5" style="stroke:#181818;stroke-width:1.0;fill:none;" width="422" x="157.5" y="60.2969"/><rect height="10" style="stroke:#181818;stroke-width:1.0;fill:none;" width="15" x="559.5" y="65.2969"/><rect height="2" style="stroke:#181818;stroke-width:1.0;fill:none;" width="4" x="557.5" y="67.2969"/><rect height="2" style="stroke:#181818;stroke-width:1.0;fill:none;" width="4" x="557.5" y="71.2969"/><text fill="#000000" font-family="sans-serif" font-size="14" font-style="italic" lengthAdjust="spacing" textLength="104" x="316.5" y="94.292">«ROSPy node»</text><text fill="#000000" font-family="sans-serif" font-size="14" font-weight="bold" lengthAdjust="spacing" textLength="155" x="291" y="126.5889">go_to_point_service</text></g><!--MD5=[3d2d0cdc5a87e8d33dbbdf625e1e368a]
entity des_pos_x--><g id="elem_des_pos_x"><polygon fill="#F1F1F1" points="792,161.2969,802,151.2969,921,151.2969,921,203.5938,911,213.5938,792,213.5938,792,161.2969" style="stroke:#181818;stroke-width:0.5;"/><line style="stroke:#181818;stroke-width:0.5;" x1="911" x2="921" y1="161.2969" y2="151.2969"/><line style="stroke:#181818;stroke-width:0.5;" x1="792" x2="911" y1="161.2969" y2="161.2969"/><line style="stroke:#181818;stroke-width:0.5;" x1="911" x2="911" y1="161.2969" y2="213.5938"/><text fill="#000000" font-family="sans-serif" font-size="14" lengthAdjust="spacing" textLength="73" x="815" y="192.292">des_pos_x</text></g><!--MD5=[f8ee79e2f34056c410e55b7856b01451]
entity des_pos_y--><g id="elem_des_pos_y"><polygon fill="#F1F1F1" points="628,161.2969,638,151.2969,757,151.2969,757,203.5938,747,213.5938,628,213.5938,628,161.2969" style="stroke:#181818;stroke-width:0.5;"/><line style="stroke:#181818;stroke-width:0.5;" x1="747" x2="757" y1="161.2969" y2="151.2969"/><line style="stroke:#181818;stroke-width:0.5;" x1="628" x2="747" y1="161.2969" y2="161.2969"/><line style="stroke:#181818;stroke-width:0.5;" x1="747" x2="747" y1="161.2969" y2="213.5938"/><text fill="#000000" font-family="sans-serif" font-size="14" lengthAdjust="spacing" textLength="73" x="651" y="192.292">des_pos_y</text></g><!--MD5=[495b0ec27928dd2ffdd338d6d2193b46]
entity GOTOPOINT_SWITCH--><g id="elem_GOTOPOINT_SWITCH"><polygon fill="#F1F1F1" points="200.5,161.2969,210.5,151.2969,388.5,151.2969,388.5,203.5938,378.5,213.5938,200.5,213.5938,200.5,161.2969" style="stroke:#181818;stroke-width:0.5;"/><line style="stroke:#181818;stroke-width:0.5;" x1="378.5" x2="388.5" y1="161.2969" y2="151.2969"/><line style="stroke:#181818;stroke-width:0.5;" x1="200.5" x2="378.5" y1="161.2969" y2="161.2969"/><line style="stroke:#181818;stroke-width:0.5;" x1="378.5" x2="378.5" y1="161.2969" y2="213.5938"/><text fill="#000000" font-family="sans-serif" font-size="14" lengthAdjust="spacing" textLength="132" x="223.5" y="192.292">go_to_point_switch</text></g><!--MD5=[7b95079480db49d6325c1d6758dd3de3]
entity READ_ODOM--><g id="elem_READ_ODOM"><polygon fill="#F1F1F1" points="424,161.2969,434,151.2969,555,151.2969,555,203.5938,545,213.5938,424,213.5938,424,161.2969" style="stroke:#181818;stroke-width:0.5;"/><line style="stroke:#181818;stroke-width:0.5;" x1="545" x2="555" y1="161.2969" y2="151.2969"/><line style="stroke:#181818;stroke-width:0.5;" x1="424" x2="545" y1="161.2969" y2="161.2969"/><line style="stroke:#181818;stroke-width:0.5;" x1="545" x2="545" y1="161.2969" y2="213.5938"/><text fill="#000000" font-family="sans-serif" font-size="14" lengthAdjust="spacing" textLength="75" x="447" y="192.292">clbk_odom</text></g><!--MD5=[a29493d5c3d449fd805f8038216f6f38]
entity TOPIC_VEL--><g id="elem_TOPIC_VEL"><ellipse cx="36.5" cy="387.2969" fill="#F1F1F1" rx="8" ry="8" style="stroke:#181818;stroke-width:0.5;"/><text fill="#000000" font-family="sans-serif" font-size="14" lengthAdjust="spacing" textLength="61" x="6" y="425.292">/cmd_vel</text></g><!--MD5=[9c0f7ecf381f88014a7ea481e5efb054]
entity TOPIC_ODOM--><g id="elem_TOPIC_ODOM"><ellipse cx="511.5" cy="387.2969" fill="#F1F1F1" rx="8" ry="8" style="stroke:#181818;stroke-width:0.5;"/><text fill="#000000" font-family="sans-serif" font-size="14" lengthAdjust="spacing" textLength="45" x="489" y="425.292">/odom</text></g><!--MD5=[e6d9a3d81fc487a20f0b2c2970d6073d]
entity SRV_GOTO_SWITCH--><g id="elem_SRV_GOTO_SWITCH"><ellipse cx="294.5" cy="387.2969" fill="#F1F1F1" rx="8" ry="8" style="stroke:#181818;stroke-width:0.5;"/><text fill="#000000" font-family="sans-serif" font-size="14" lengthAdjust="spacing" textLength="137" x="226" y="425.292">/go_to_point_switch</text></g><!--MD5=[1a33593d04dbb53e66cf90ffc61b646d]
link NODE_GO_TO_POINT to TOPIC_VEL--><g id="link_NODE_GO_TO_POINT_TOPIC_VEL"><path codeLine="20" d="M157.4464,187.1286 C157.2599,187.2216 157.0706,187.3163 156.8785,187.4126 C156.4944,187.6052 156.0994,187.8043 155.6939,188.0099 C154.8828,188.4211 154.0296,188.8582 153.1375,189.3208 C146.0006,193.0216 136.3725,198.355 125.8775,205.1206 C104.8875,218.6519 80.43,237.9119 65.5,261.2969 C42.64,297.1069 37.74,348.9369 36.74,373.0369 " fill="none" id="NODE_GO_TO_POINT-to-TOPIC_VEL" style="stroke:#181818;stroke-width:1.0;"/><polygon fill="#181818" points="36.56,378.2769,40.866,369.4192,36.7313,373.2798,32.8707,369.1451,36.56,378.2769" style="stroke:#181818;stroke-width:1.0;"/><path d="M70.5,266.2969 L70.5,307.2969 L278.5,307.2969 L278.5,276.2969 L268.5,266.2969 L70.5,266.2969 " fill="#FEFFDD" style="stroke:#181818;stroke-width:0.5;"/><path d="M268.5,266.2969 L268.5,276.2969 L278.5,276.2969 L268.5,266.2969 " fill="#FEFFDD" style="stroke:#181818;stroke-width:0.5;"/><text fill="#000000" font-family="sans-serif" font-size="13" lengthAdjust="spacing" textLength="171" x="84.5" y="291.3638">geometry_msgs/Twist.msg</text><text fill="#000000" font-family="sans-serif" font-size="13" lengthAdjust="spacing" textLength="24" x="133.45" y="172.3838">pub</text></g><!--MD5=[3eda043c1d89606ed2c4e072055c366b]
reverse link READ_ODOM to TOPIC_ODOM--><g id="link_READ_ODOM_TOPIC_ODOM"><path codeLine="24" d="M493.35,218.8569 C498.62,267.4569 507.74,351.6369 510.61,378.0969 " fill="none" id="READ_ODOM-backto-TOPIC_ODOM" style="stroke:#181818;stroke-width:1.0;"/><polygon fill="#181818" points="492.79,213.6869,489.7906,223.0679,493.3328,218.6573,497.7433,222.1995,492.79,213.6869" style="stroke:#181818;stroke-width:1.0;"/><path d="M507.5,266.2969 L507.5,307.2969 L709.5,307.2969 L709.5,276.2969 L699.5,266.2969 L507.5,266.2969 " fill="#FEFFDD" style="stroke:#181818;stroke-width:0.5;"/><path d="M699.5,266.2969 L699.5,276.2969 L709.5,276.2969 L699.5,266.2969 " fill="#FEFFDD" style="stroke:#181818;stroke-width:0.5;"/><text fill="#000000" font-family="sans-serif" font-size="13" lengthAdjust="spacing" textLength="165" x="521.5" y="291.3638">nav_msgs/Odometry.msg</text><text fill="#000000" font-family="sans-serif" font-size="13" lengthAdjust="spacing" textLength="23" x="459.0039" y="241.7989">sub</text></g><!--MD5=[a082e6564b5e87a24b4453dba4bf4849]
link GOTOPOINT_SWITCH to SRV_GOTO_SWITCH--><g id="link_GOTOPOINT_SWITCH_SRV_GOTO_SWITCH"><path codeLine="28" d="M293.06,213.6669 C292.45,228.0869 291.8,245.5769 291.5,261.2969 C291.06,283.9569 291.04,289.6369 291.5,312.2969 C291.93,333.4069 293.04,357.8769 293.78,372.7169 " fill="none" id="GOTOPOINT_SWITCH-to-SRV_GOTO_SWITCH" style="stroke:#181818;stroke-width:1.0;"/><polygon fill="#181818" points="294.06,378.0869,297.5911,368.8928,293.8025,373.0935,289.6017,369.3049,294.06,378.0869" style="stroke:#181818;stroke-width:1.0;"/><path d="M296.5,266.2969 L296.5,307.2969 L463.5,307.2969 L463.5,276.2969 L453.5,266.2969 L296.5,266.2969 " fill="#FEFFDD" style="stroke:#181818;stroke-width:0.5;"/><path d="M453.5,266.2969 L453.5,276.2969 L463.5,276.2969 L453.5,266.2969 " fill="#FEFFDD" style="stroke:#181818;stroke-width:0.5;"/><text fill="#000000" font-family="sans-serif" font-size="13" lengthAdjust="spacing" textLength="130" x="310.5" y="291.3638">std_srvs/SetBool.srv</text><text fill="#000000" font-family="sans-serif" font-size="13" lengthAdjust="spacing" textLength="19" x="262.8047" y="241.7755">srv</text></g><!--MD5=[ab9e7f9f11307987d1dc9751ed7ca298]
@startuml

''' INFOS
title NODE go_to_point
skinparam Padding 8
allow_mixing


''' COMPONENTS
database "ROS parameter server" as PARAMETERS {
	node "des_pos_x"
	node "des_pos_y"
}
component "go_to_point_service" <<ROSPy node>> as NODE_GO_TO_POINT {
	node "go_to_point_switch" as GOTOPOINT_SWITCH
	node "clbk_odom" as READ_ODOM
	
}

() "/cmd_vel" as TOPIC_VEL
NODE_GO_TO_POINT "pub" - -> TOPIC_VEL
note on link: geometry_msgs/Twist.msg

() "/odom" as TOPIC_ODOM
READ_ODOM "sub" <- - TOPIC_ODOM
note on link: nav_msgs/Odometry.msg

() "/go_to_point_switch" as SRV_GOTO_SWITCH
GOTOPOINT_SWITCH "srv" - -> SRV_GOTO_SWITCH
note on link: std_srvs/SetBool.srv

@enduml

@startuml

title NODE go_to_point
skinparam Padding 8
allow_mixing


database "ROS parameter server" as PARAMETERS {
	node "des_pos_x"
	node "des_pos_y"
}
component "go_to_point_service" <<ROSPy node>> as NODE_GO_TO_POINT {
	node "go_to_point_switch" as GOTOPOINT_SWITCH
	node "clbk_odom" as READ_ODOM
	
}

() "/cmd_vel" as TOPIC_VEL
NODE_GO_TO_POINT "pub" - -> TOPIC_VEL
note on link: geometry_msgs/Twist.msg

() "/odom" as TOPIC_ODOM
READ_ODOM "sub" <- - TOPIC_ODOM
note on link: nav_msgs/Odometry.msg

() "/go_to_point_switch" as SRV_GOTO_SWITCH
GOTOPOINT_SWITCH "srv" - -> SRV_GOTO_SWITCH
note on link: std_srvs/SetBool.srv

@enduml

PlantUML version 1.2022.6(Tue Jun 21 17:34:49 UTC 2022)
(GPL source distribution)
Java Runtime: Java(TM) SE Runtime Environment
JVM: Java HotSpot(TM) 64-Bit Server VM
Default Encoding: UTF-8
Language: en
Country: US
--></g></svg>