<?xml version="1.0" encoding="UTF-8" standalone="no"?><svg xmlns="http://www.w3.org/2000/svg" xmlns:xlink="http://www.w3.org/1999/xlink" contentStyleType="text/css" height="444px" preserveAspectRatio="none" style="width:351px;height:444px;background:#FFFFFF;" version="1.1" viewBox="0 0 351 444" width="351px" zoomAndPan="magnify"><defs/><g><rect height="42.2969" style="stroke:#00000000;stroke-width:1.0;fill:none;" width="310" x="13.75" y="5"/><text fill="#000000" font-family="sans-serif" font-size="14" font-weight="bold" lengthAdjust="spacing" textLength="284" x="26.75" y="30.9951">robocluedo_armor project structure</text><!--MD5=[2ec217370957b2413107c0915574fe23]
entity NODE--><g id="elem_NODE"><rect fill="#F1F1F1" height="62.2969" rx="2.5" ry="2.5" style="stroke:#181818;stroke-width:0.5;" width="163" x="7" y="60.2969"/><rect fill="#F1F1F1" height="10" style="stroke:#181818;stroke-width:0.5;" width="15" x="150" y="65.2969"/><rect fill="#F1F1F1" height="2" style="stroke:#181818;stroke-width:0.5;" width="4" x="148" y="67.2969"/><rect fill="#F1F1F1" height="2" style="stroke:#181818;stroke-width:0.5;" width="4" x="148" y="71.2969"/><text fill="#000000" font-family="sans-serif" font-size="14" lengthAdjust="spacing" textLength="107" x="30" y="101.292">armor_interface</text></g><!--MD5=[d966621a06b379d0f2866da504c15a36]
entity ARMOR--><g id="elem_ARMOR"><path d="M258.5,376.2969 C258.5,366.2969 296.5,366.2969 296.5,366.2969 C296.5,366.2969 334.5,366.2969 334.5,376.2969 L334.5,417.5938 C334.5,427.5938 296.5,427.5938 296.5,427.5938 C296.5,427.5938 258.5,427.5938 258.5,417.5938 L258.5,376.2969 " fill="#F1F1F1" style="stroke:#181818;stroke-width:0.5;"/><path d="M258.5,376.2969 C258.5,386.2969 296.5,386.2969 296.5,386.2969 C296.5,386.2969 334.5,386.2969 334.5,376.2969 " fill="none" style="stroke:#181818;stroke-width:0.5;"/><text fill="#000000" font-family="sans-serif" font-size="14" lengthAdjust="spacing" textLength="40" x="276.5" y="411.292">armor</text></g><!--MD5=[6c4d3e172c883ed861264a6752077353]
class ARMOR1--><g id="elem_ARMOR1"><rect codeLine="5" fill="#F1F1F1" height="58.2969" id="ARMOR1" rx="2.5" ry="2.5" style="stroke:#181818;stroke-width:0.5;" width="129" x="24" y="367.7969"/><ellipse cx="39" cy="388.9453" fill="#ADD1B2" rx="11" ry="11" style="stroke:#181818;stroke-width:1.0;"/><path d="M41.9688,394.5859 Q41.3906,394.8828 40.75,395.0313 Q40.1094,395.1797 39.4063,395.1797 Q36.9063,395.1797 35.5859,393.5313 Q34.2656,391.8828 34.2656,388.7578 Q34.2656,385.6328 35.5859,383.9766 Q36.9063,382.3203 39.4063,382.3203 Q40.1094,382.3203 40.7578,382.4766 Q41.4063,382.6328 41.9688,382.9297 L41.9688,385.6484 Q41.3438,385.0703 40.75,384.7969 Q40.1563,384.5234 39.5313,384.5234 Q38.1875,384.5234 37.5,385.5938 Q36.8125,386.6641 36.8125,388.7578 Q36.8125,390.8516 37.5,391.9219 Q38.1875,392.9922 39.5313,392.9922 Q40.1563,392.9922 40.75,392.7188 Q41.3438,392.4453 41.9688,391.8672 L41.9688,394.5859 Z " fill="#000000"/><text fill="#000000" font-family="sans-serif" font-size="14" lengthAdjust="spacing" textLength="81" x="61" y="393.792">armor_tools</text><line style="stroke:#181818;stroke-width:0.5;" x1="25" x2="152" y1="410.0938" y2="410.0938"/><line style="stroke:#181818;stroke-width:0.5;" x1="25" x2="152" y1="418.0938" y2="418.0938"/></g><!--MD5=[6847da3f20b863f850298abca29b84c3]
class ARMOR2--><g id="elem_ARMOR2"><rect codeLine="9" fill="#F1F1F1" height="58.2969" id="ARMOR2" rx="2.5" ry="2.5" style="stroke:#181818;stroke-width:0.5;" width="142" x="17.5" y="215.2969"/><ellipse cx="32.5" cy="236.4453" fill="#ADD1B2" rx="11" ry="11" style="stroke:#181818;stroke-width:1.0;"/><path d="M35.4688,242.0859 Q34.8906,242.3828 34.25,242.5313 Q33.6094,242.6797 32.9063,242.6797 Q30.4063,242.6797 29.0859,241.0313 Q27.7656,239.3828 27.7656,236.2578 Q27.7656,233.1328 29.0859,231.4766 Q30.4063,229.8203 32.9063,229.8203 Q33.6094,229.8203 34.2578,229.9766 Q34.9063,230.1328 35.4688,230.4297 L35.4688,233.1484 Q34.8438,232.5703 34.25,232.2969 Q33.6563,232.0234 33.0313,232.0234 Q31.6875,232.0234 31,233.0938 Q30.3125,234.1641 30.3125,236.2578 Q30.3125,238.3516 31,239.4219 Q31.6875,240.4922 33.0313,240.4922 Q33.6563,240.4922 34.25,240.2188 Q34.8438,239.9453 35.4688,239.3672 L35.4688,242.0859 Z " fill="#000000"/><text fill="#000000" font-family="sans-serif" font-size="14" lengthAdjust="spacing" textLength="94" x="54.5" y="241.292">armor_cluedo</text><line style="stroke:#181818;stroke-width:0.5;" x1="18.5" x2="158.5" y1="257.5938" y2="257.5938"/><line style="stroke:#181818;stroke-width:0.5;" x1="18.5" x2="158.5" y1="265.5938" y2="265.5938"/></g><!--MD5=[48c5f3e5290c60664ebfbc8189878fc7]
reverse link ARMOR2 to ARMOR1--><g id="link_ARMOR2_ARMOR1"><path codeLine="21" d="M55.22,291.1269 C53.34,295.1169 51.72,299.1969 50.5,303.2969 C46.31,317.3469 46.39,322.2169 50.5,336.2969 C53.73,347.3569 59.71,358.3169 65.99,367.7569 " fill="none" id="ARMOR2-backto-ARMOR1" style="stroke:#181818;stroke-width:1.0;"/><polygon fill="none" points="49.35,287.2869,65.4,273.4369,61.49,294.2669,49.35,287.2869" style="stroke:#181818;stroke-width:1.0;"/><text fill="#000000" font-family="sans-serif" font-size="13" lengthAdjust="spacing" textLength="12" x="59.5" y="324.3638">   </text></g><!--MD5=[ff55ac317f8306263d9d44f8f91fe5a8]
link ARMOR2 to ARMOR1--><g id="link_ARMOR2_ARMOR1"><path codeLine="22" d="M88.5,273.6069 C88.5,298.8269 88.5,335.7769 88.5,362.4269 " fill="none" id="ARMOR2-to-ARMOR1" style="stroke:#181818;stroke-width:1.0;"/><polygon fill="#181818" points="88.5,367.6169,92.5,358.6169,88.5,362.6169,84.5,358.6169,88.5,367.6169" style="stroke:#181818;stroke-width:1.0;"/><text fill="#000000" font-family="sans-serif" font-size="13" lengthAdjust="spacing" textLength="12" x="97.5" y="324.3638">   </text></g><!--MD5=[d03e2dcda105ba227e994657e0bb3b89]
reverse link NODE to ARMOR2--><g id="link_NODE_ARMOR2"><path codeLine="23" d="M88.5,142.8269 C88.5,166.9469 88.5,194.9069 88.5,215.1969 " fill="none" id="NODE-backto-ARMOR2" style="stroke:#181818;stroke-width:1.0;"/><polygon fill="none" points="81.5,142.4869,88.5,122.4869,95.5,142.4869,81.5,142.4869" style="stroke:#181818;stroke-width:1.0;"/><text fill="#000000" font-family="sans-serif" font-size="13" lengthAdjust="spacing" textLength="59" x="97.5" y="173.3638">inherits...</text></g><!--MD5=[cfa38258ef34bd0704a22fedbfd3cd22]
link ARMOR1 to ARMOR--><g id="link_ARMOR1_ARMOR"><path codeLine="24" d="M153.17,396.7969 C185.62,396.7969 224.05,396.7969 252.95,396.7969 " fill="none" id="ARMOR1-to-ARMOR" style="stroke:#181818;stroke-width:1.0;"/><polygon fill="#181818" points="258.23,396.7969,249.23,392.7969,253.23,396.7969,249.23,400.7969,258.23,396.7969" style="stroke:#181818;stroke-width:1.0;"/><text fill="#000000" font-family="sans-serif" font-size="13" lengthAdjust="spacing" textLength="53" x="179.25" y="381.8638">as client</text><text fill="#000000" font-family="sans-serif" font-size="13" lengthAdjust="spacing" textLength="10" x="169.1797" y="418.4537">cl</text><text fill="#000000" font-family="sans-serif" font-size="13" lengthAdjust="spacing" textLength="19" x="223.3873" y="419.0319">srv</text></g><!--MD5=[bfb3b0e522a744031b8eb9184f52cccf]
@startuml

title robocluedo_armor project structure
skinparam Padding 8

class "armor_tools" as ARMOR1 {

}

class "armor_cluedo" as ARMOR2 {

}

component "armor_interface" as NODE {

}

database "armor" as ARMOR {

}

ARMOR1 -up-|> ARMOR2 : "   "
ARMOR2 - -> ARMOR1 : "   "
ARMOR2 -up-|> NODE : "inherits..."
ARMOR1 "cl" -right-> "srv" ARMOR : "as client"

@enduml

PlantUML version 1.2022.6(Tue Jun 21 17:34:49 UTC 2022)
(GPL source distribution)
Java Runtime: Java(TM) SE Runtime Environment
JVM: Java HotSpot(TM) 64-Bit Server VM
Default Encoding: UTF-8
Language: en
Country: US
--></g></svg>