<?xml version="1.0" encoding="UTF-8" standalone="no"?><svg xmlns="http://www.w3.org/2000/svg" xmlns:xlink="http://www.w3.org/1999/xlink" contentStyleType="text/css" height="433px" preserveAspectRatio="none" style="width:748px;height:433px;background:#FFFFFF;" version="1.1" viewBox="0 0 748 433" width="748px" zoomAndPan="magnify"><defs/><g><rect height="42.2969" style="stroke:#00000000;stroke-width:1.0;fill:none;" width="160" x="287.25" y="5"/><text fill="#000000" font-family="sans-serif" font-size="14" font-weight="bold" lengthAdjust="spacing" textLength="134" x="300.25" y="30.9951">NODE wall_follow</text><!--MD5=[e12d9cd362ffb28dfd886312c6eed98e]
cluster NODE_WALL_FOLLOW--><g id="cluster_NODE_WALL_FOLLOW"><rect height="177" rx="2.5" ry="2.5" style="stroke:#181818;stroke-width:1.0;fill:none;" width="418" x="185.5" y="60.2969"/><rect height="10" style="stroke:#181818;stroke-width:1.0;fill:none;" width="15" x="583.5" y="65.2969"/><rect height="2" style="stroke:#181818;stroke-width:1.0;fill:none;" width="4" x="581.5" y="67.2969"/><rect height="2" style="stroke:#181818;stroke-width:1.0;fill:none;" width="4" x="581.5" y="71.2969"/><text fill="#000000" font-family="sans-serif" font-size="14" font-style="italic" lengthAdjust="spacing" textLength="104" x="342.5" y="94.292">«ROSPy node»</text><text fill="#000000" font-family="sans-serif" font-size="14" font-weight="bold" lengthAdjust="spacing" textLength="86" x="351.5" y="126.5889">wall_follow</text></g><!--MD5=[1300f8656fb494e4e343a571f1e3e6d8]
entity WALL_FOLLOW_SWITCH--><g id="elem_WALL_FOLLOW_SWITCH"><polygon fill="#F1F1F1" points="228.5,161.2969,238.5,151.2969,420.5,151.2969,420.5,203.5938,410.5,213.5938,228.5,213.5938,228.5,161.2969" style="stroke:#181818;stroke-width:0.5;"/><line style="stroke:#181818;stroke-width:0.5;" x1="410.5" x2="420.5" y1="161.2969" y2="151.2969"/><line style="stroke:#181818;stroke-width:0.5;" x1="228.5" x2="410.5" y1="161.2969" y2="161.2969"/><line style="stroke:#181818;stroke-width:0.5;" x1="410.5" x2="410.5" y1="161.2969" y2="213.5938"/><text fill="#000000" font-family="sans-serif" font-size="14" lengthAdjust="spacing" textLength="136" x="251.5" y="192.292">wall_follower_switch</text></g><!--MD5=[3db55a72a4cb2345546b5623bad04e6d]
entity LISTENER_LASER--><g id="elem_LISTENER_LASER"><polygon fill="#F1F1F1" points="455.5,161.2969,465.5,151.2969,579.5,151.2969,579.5,203.5938,569.5,213.5938,455.5,213.5938,455.5,161.2969" style="stroke:#181818;stroke-width:0.5;"/><line style="stroke:#181818;stroke-width:0.5;" x1="569.5" x2="579.5" y1="161.2969" y2="151.2969"/><line style="stroke:#181818;stroke-width:0.5;" x1="455.5" x2="569.5" y1="161.2969" y2="161.2969"/><line style="stroke:#181818;stroke-width:0.5;" x1="569.5" x2="569.5" y1="161.2969" y2="213.5938"/><text fill="#000000" font-family="sans-serif" font-size="14" lengthAdjust="spacing" textLength="68" x="478.5" y="192.292">clbk_laser</text></g><!--MD5=[a29493d5c3d449fd805f8038216f6f38]
entity TOPIC_VEL--><g id="elem_TOPIC_VEL"><ellipse cx="112.5" cy="182.2969" fill="#F1F1F1" rx="8" ry="8" style="stroke:#181818;stroke-width:0.5;"/><text fill="#000000" font-family="sans-serif" font-size="14" lengthAdjust="spacing" textLength="61" x="82" y="220.292">/cmd_vel</text></g><!--MD5=[7d2f4cefddaf2f21fba3b82f8dfc8a88]
class TOPC_VEL--><g id="elem_TOPC_VEL"><rect fill="#F1F1F1" height="58.2969" id="TOPC_VEL" rx="2.5" ry="2.5" style="stroke:#181818;stroke-width:0.5;" width="119" x="7" y="358.2969"/><ellipse cx="22" cy="379.4453" fill="#ADD1B2" rx="11" ry="11" style="stroke:#181818;stroke-width:1.0;"/><path d="M24.9688,385.0859 Q24.3906,385.3828 23.75,385.5313 Q23.1094,385.6797 22.4063,385.6797 Q19.9063,385.6797 18.5859,384.0313 Q17.2656,382.3828 17.2656,379.2578 Q17.2656,376.1328 18.5859,374.4766 Q19.9063,372.8203 22.4063,372.8203 Q23.1094,372.8203 23.7578,372.9766 Q24.4063,373.1328 24.9688,373.4297 L24.9688,376.1484 Q24.3438,375.5703 23.75,375.2969 Q23.1563,375.0234 22.5313,375.0234 Q21.1875,375.0234 20.5,376.0938 Q19.8125,377.1641 19.8125,379.2578 Q19.8125,381.3516 20.5,382.4219 Q21.1875,383.4922 22.5313,383.4922 Q23.1563,383.4922 23.75,383.2188 Q24.3438,382.9453 24.9688,382.3672 L24.9688,385.0859 Z " fill="#000000"/><text fill="#000000" font-family="sans-serif" font-size="14" lengthAdjust="spacing" textLength="71" x="44" y="384.292">TOPC_VEL</text><line style="stroke:#181818;stroke-width:0.5;" x1="8" x2="125" y1="400.5938" y2="400.5938"/><line style="stroke:#181818;stroke-width:0.5;" x1="8" x2="125" y1="408.5938" y2="408.5938"/></g><!--MD5=[cf4c761246342468269b9fda4f668b9a]
entity TOPIC_LASER--><g id="elem_TOPIC_LASER"><ellipse cx="541.5" cy="387.2969" fill="#F1F1F1" rx="8" ry="8" style="stroke:#181818;stroke-width:0.5;"/><text fill="#000000" font-family="sans-serif" font-size="14" lengthAdjust="spacing" textLength="38" x="522.5" y="425.292">/scan</text></g><!--MD5=[0de5e037182cbe7d3ce53b2ba1c49cc1]
entity SRV_WALL_SWITCH--><g id="elem_SRV_WALL_SWITCH"><ellipse cx="324.5" cy="387.2969" fill="#F1F1F1" rx="8" ry="8" style="stroke:#181818;stroke-width:0.5;"/><text fill="#000000" font-family="sans-serif" font-size="14" lengthAdjust="spacing" textLength="141" x="254" y="425.292">/wall_follower_switch</text></g><!--MD5=[2e329d7dd9c82cc9aa2478056b76d850]
link NODE_WALL_FOLLOW to TOPC_VEL--><g id="link_NODE_WALL_FOLLOW_TOPC_VEL"><path codeLine="15" d="M187.7221,237.5784 C187.6239,237.7996 187.5244,238.0201 187.4235,238.2398 C187.2217,238.6793 187.0145,239.1158 186.8017,239.549 C185.9505,241.2822 185.0101,242.9639 183.9718,244.5771 C181.8953,247.8034 179.4275,250.7556 176.5,253.2969 C162.67,265.2969 108.22,249.1669 94.5,261.2969 C69.01,283.8269 63.98,324.0669 64.07,352.8069 " fill="none" id="NODE_WALL_FOLLOW-to-TOPC_VEL" style="stroke:#181818;stroke-width:1.0;"/><polygon fill="#181818" points="64.14,358.0269,68.011,348.9707,64.0686,353.0274,60.0118,349.0849,64.14,358.0269" style="stroke:#181818;stroke-width:1.0;"/><path d="M99.5,266.2969 L99.5,307.2969 L307.5,307.2969 L307.5,276.2969 L297.5,266.2969 L99.5,266.2969 " fill="#FEFFDD" style="stroke:#181818;stroke-width:0.5;"/><path d="M297.5,266.2969 L297.5,276.2969 L307.5,276.2969 L297.5,266.2969 " fill="#FEFFDD" style="stroke:#181818;stroke-width:0.5;"/><text fill="#000000" font-family="sans-serif" font-size="13" lengthAdjust="spacing" textLength="171" x="113.5" y="291.3638">geometry_msgs/Twist.msg</text><text fill="#000000" font-family="sans-serif" font-size="13" lengthAdjust="spacing" textLength="24" x="188.6845" y="203.8918">pub</text></g><!--MD5=[7181b1c40088f29830a88de43162a0f6]
reverse link LISTENER_LASER to TOPIC_LASER--><g id="link_LISTENER_LASER_TOPIC_LASER"><path codeLine="19" d="M521.7,218.8569 C527.45,267.4569 537.4,351.6369 540.53,378.0969 " fill="none" id="LISTENER_LASER-backto-TOPIC_LASER" style="stroke:#181818;stroke-width:1.0;"/><polygon fill="#181818" points="521.09,213.6869,518.1705,223.0931,521.675,218.6525,526.1156,222.157,521.09,213.6869" style="stroke:#181818;stroke-width:1.0;"/><path d="M536.5,266.2969 L536.5,307.2969 L741.5,307.2969 L741.5,276.2969 L731.5,266.2969 L536.5,266.2969 " fill="#FEFFDD" style="stroke:#181818;stroke-width:0.5;"/><path d="M731.5,266.2969 L731.5,276.2969 L741.5,276.2969 L731.5,266.2969 " fill="#FEFFDD" style="stroke:#181818;stroke-width:0.5;"/><text fill="#000000" font-family="sans-serif" font-size="13" lengthAdjust="spacing" textLength="168" x="550.5" y="291.3638">nav_msgs/LaserScan.msg</text><text fill="#000000" font-family="sans-serif" font-size="13" lengthAdjust="spacing" textLength="23" x="487.3555" y="241.7989">sub</text></g><!--MD5=[acff2b688ba2c61e68b9b7531ccb5aef]
link WALL_FOLLOW_SWITCH to SRV_WALL_SWITCH--><g id="link_WALL_FOLLOW_SWITCH_SRV_WALL_SWITCH"><path codeLine="23" d="M323.06,213.6669 C322.45,228.0869 321.8,245.5769 321.5,261.2969 C321.06,283.9569 321.04,289.6369 321.5,312.2969 C321.93,333.4069 323.04,357.8769 323.78,372.7169 " fill="none" id="WALL_FOLLOW_SWITCH-to-SRV_WALL_SWITCH" style="stroke:#181818;stroke-width:1.0;"/><polygon fill="#181818" points="324.06,378.0869,327.5911,368.8928,323.8025,373.0935,319.6017,369.3049,324.06,378.0869" style="stroke:#181818;stroke-width:1.0;"/><path d="M326.5,266.2969 L326.5,307.2969 L493.5,307.2969 L493.5,276.2969 L483.5,266.2969 L326.5,266.2969 " fill="#FEFFDD" style="stroke:#181818;stroke-width:0.5;"/><path d="M483.5,266.2969 L483.5,276.2969 L493.5,276.2969 L483.5,266.2969 " fill="#FEFFDD" style="stroke:#181818;stroke-width:0.5;"/><text fill="#000000" font-family="sans-serif" font-size="13" lengthAdjust="spacing" textLength="130" x="340.5" y="291.3638">std_srvs/SetBool.srv</text><text fill="#000000" font-family="sans-serif" font-size="13" lengthAdjust="spacing" textLength="19" x="292.8047" y="241.7755">srv</text></g><!--MD5=[dabf4ace8522926ac3375870b471a034]
@startuml

''' INFOS
title NODE wall_follow
skinparam Padding 8
allow_mixing


''' COMPONENTS
component "wall_follow" <<ROSPy node>> as NODE_WALL_FOLLOW {
	node "wall_follower_switch" as WALL_FOLLOW_SWITCH
	node "clbk_laser" as LISTENER_LASER
}

() "/cmd_vel" as TOPIC_VEL
NODE_WALL_FOLLOW "pub" - -> TOPC_VEL
note on link: geometry_msgs/Twist.msg

() "/scan" as TOPIC_LASER
LISTENER_LASER "sub" <- - TOPIC_LASER
note on link: nav_msgs/LaserScan.msg

() "/wall_follower_switch" as SRV_WALL_SWITCH
WALL_FOLLOW_SWITCH "srv" - -> SRV_WALL_SWITCH
note on link: std_srvs/SetBool.srv

@enduml

@startuml

title NODE wall_follow
skinparam Padding 8
allow_mixing


component "wall_follow" <<ROSPy node>> as NODE_WALL_FOLLOW {
	node "wall_follower_switch" as WALL_FOLLOW_SWITCH
	node "clbk_laser" as LISTENER_LASER
}

() "/cmd_vel" as TOPIC_VEL
NODE_WALL_FOLLOW "pub" - -> TOPC_VEL
note on link: geometry_msgs/Twist.msg

() "/scan" as TOPIC_LASER
LISTENER_LASER "sub" <- - TOPIC_LASER
note on link: nav_msgs/LaserScan.msg

() "/wall_follower_switch" as SRV_WALL_SWITCH
WALL_FOLLOW_SWITCH "srv" - -> SRV_WALL_SWITCH
note on link: std_srvs/SetBool.srv

@enduml

PlantUML version 1.2022.6(Tue Jun 21 17:34:49 UTC 2022)
(GPL source distribution)
Java Runtime: Java(TM) SE Runtime Environment
JVM: Java HotSpot(TM) 64-Bit Server VM
Default Encoding: UTF-8
Language: en
Country: US
--></g></svg>