<?xml version="1.0" encoding="UTF-8" standalone="no"?><svg xmlns="http://www.w3.org/2000/svg" xmlns:xlink="http://www.w3.org/1999/xlink" contentStyleType="text/css" height="514px" preserveAspectRatio="none" style="width:466px;height:514px;background:#FFFFFF;" version="1.1" viewBox="0 0 466 514" width="466px" zoomAndPan="magnify"><defs/><g><rect height="26.2969" style="stroke:#00000000;stroke-width:1.0;fill:none;" width="293" x="82.5" y="10"/><text fill="#000000" font-family="sans-serif" font-size="14" font-weight="bold" lengthAdjust="spacing" textLength="283" x="87.5" y="27.9951">Synchronous manipulation -- RCL#2</text><line style="stroke:#181818;stroke-width:0.5;stroke-dasharray:5.0,5.0;" x1="43" x2="43" y1="73.5938" y2="479.1875"/><line style="stroke:#181818;stroke-width:0.5;stroke-dasharray:5.0,5.0;" x1="208.5" x2="208.5" y1="73.5938" y2="479.1875"/><line style="stroke:#181818;stroke-width:0.5;stroke-dasharray:5.0,5.0;" x1="395.5" x2="395.5" y1="73.5938" y2="479.1875"/><rect fill="#E2E2F0" height="30.2969" rx="2.5" ry="2.5" style="stroke:#181818;stroke-width:0.5;" width="77" x="5" y="42.2969"/><text fill="#000000" font-family="sans-serif" font-size="14" lengthAdjust="spacing" textLength="63" x="12" y="62.292">COLLECT</text><rect fill="#E2E2F0" height="30.2969" rx="2.5" ry="2.5" style="stroke:#181818;stroke-width:0.5;" width="77" x="5" y="478.1875"/><text fill="#000000" font-family="sans-serif" font-size="14" lengthAdjust="spacing" textLength="63" x="12" y="498.1826">COLLECT</text><rect fill="#E2E2F0" height="30.2969" rx="2.5" ry="2.5" style="stroke:#181818;stroke-width:0.5;" width="96" x="160.5" y="42.2969"/><text fill="#000000" font-family="sans-serif" font-size="14" lengthAdjust="spacing" textLength="82" x="167.5" y="62.292">MANIP_UNIT</text><rect fill="#E2E2F0" height="30.2969" rx="2.5" ry="2.5" style="stroke:#181818;stroke-width:0.5;" width="96" x="160.5" y="478.1875"/><text fill="#000000" font-family="sans-serif" font-size="14" lengthAdjust="spacing" textLength="82" x="167.5" y="498.1826">MANIP_UNIT</text><rect fill="#E2E2F0" height="30.2969" rx="2.5" ry="2.5" style="stroke:#181818;stroke-width:0.5;" width="116" x="337.5" y="42.2969"/><text fill="#000000" font-family="sans-serif" font-size="14" lengthAdjust="spacing" textLength="102" x="344.5" y="62.292">MANIPULATION</text><rect fill="#E2E2F0" height="30.2969" rx="2.5" ry="2.5" style="stroke:#181818;stroke-width:0.5;" width="116" x="337.5" y="478.1875"/><text fill="#000000" font-family="sans-serif" font-size="14" lengthAdjust="spacing" textLength="102" x="344.5" y="498.1826">MANIPULATION</text><rect fill="#EEEEEE" height="3" style="stroke:#EEEEEE;stroke-width:1.0;" width="459" x="0" y="104.1602"/><line style="stroke:#000000;stroke-width:1.0;" x1="0" x2="459" y1="104.1602" y2="104.1602"/><line style="stroke:#000000;stroke-width:1.0;" x1="0" x2="459" y1="107.1602" y2="107.1602"/><rect fill="#EEEEEE" height="23.1328" style="stroke:#000000;stroke-width:2.0;" width="189" x="135" y="93.5938"/><text fill="#000000" font-family="sans-serif" font-size="13" font-weight="bold" lengthAdjust="spacing" textLength="170" x="141" y="109.6606">put near to the marker</text><polygon fill="#181818" points="196.5,143.8594,206.5,147.8594,196.5,151.8594,200.5,147.8594" style="stroke:#181818;stroke-width:1.0;"/><line style="stroke:#181818;stroke-width:1.0;stroke-dasharray:2.0,2.0;" x1="43.5" x2="202.5" y1="147.8594" y2="147.8594"/><text fill="#000000" font-family="sans-serif" font-size="13" lengthAdjust="spacing" textLength="133" x="50.5" y="142.7935">send command near</text><polygon fill="#181818" points="383.5,172.9922,393.5,176.9922,383.5,180.9922,387.5,176.9922" style="stroke:#181818;stroke-width:1.0;"/><line style="stroke:#181818;stroke-width:1.0;stroke-dasharray:2.0,2.0;" x1="208.5" x2="389.5" y1="176.9922" y2="176.9922"/><text fill="#000000" font-family="sans-serif" font-size="13" lengthAdjust="spacing" textLength="163" x="215.5" y="171.9263">convert and pass request</text><polygon fill="#FEFFDD" points="346,189.9922,444,189.9922,454,200.9922,444,212.9922,346,212.9922,336,200.9922,346,189.9922" style="stroke:#181818;stroke-width:0.5;"/><text fill="#000000" font-family="sans-serif" font-size="13" lengthAdjust="spacing" textLength="94" x="348" y="206.0591">moveit move()</text><polygon fill="#181818" points="219.5,235.2578,209.5,239.2578,219.5,243.2578,215.5,239.2578" style="stroke:#181818;stroke-width:1.0;"/><line style="stroke:#181818;stroke-width:1.0;stroke-dasharray:2.0,2.0;" x1="213.5" x2="394.5" y1="239.2578" y2="239.2578"/><text fill="#000000" font-family="sans-serif" font-size="13" font-style="italic" lengthAdjust="spacing" textLength="51" x="225.5" y="234.1919">success</text><polygon fill="#181818" points="54.5,264.3906,44.5,268.3906,54.5,272.3906,50.5,268.3906" style="stroke:#181818;stroke-width:1.0;"/><line style="stroke:#181818;stroke-width:1.0;stroke-dasharray:2.0,2.0;" x1="48.5" x2="207.5" y1="268.3906" y2="268.3906"/><text fill="#000000" font-family="sans-serif" font-size="13" font-style="italic" lengthAdjust="spacing" textLength="51" x="60.5" y="263.3247">success</text><rect fill="#EEEEEE" height="3" style="stroke:#EEEEEE;stroke-width:1.0;" width="459" x="0" y="296.957"/><line style="stroke:#000000;stroke-width:1.0;" x1="0" x2="459" y1="296.957" y2="296.957"/><line style="stroke:#000000;stroke-width:1.0;" x1="0" x2="459" y1="299.957" y2="299.957"/><rect fill="#EEEEEE" height="23.1328" style="stroke:#000000;stroke-width:2.0;" width="124" x="167.5" y="286.3906"/><text fill="#000000" font-family="sans-serif" font-size="13" font-weight="bold" lengthAdjust="spacing" textLength="105" x="173.5" y="302.4575">home position</text><polygon fill="#181818" points="196.5,336.6563,206.5,340.6563,196.5,344.6563,200.5,340.6563" style="stroke:#181818;stroke-width:1.0;"/><line style="stroke:#181818;stroke-width:1.0;stroke-dasharray:2.0,2.0;" x1="43.5" x2="202.5" y1="340.6563" y2="340.6563"/><text fill="#000000" font-family="sans-serif" font-size="13" lengthAdjust="spacing" textLength="141" x="50.5" y="335.5903">send command home</text><polygon fill="#181818" points="383.5,365.7891,393.5,369.7891,383.5,373.7891,387.5,369.7891" style="stroke:#181818;stroke-width:1.0;"/><line style="stroke:#181818;stroke-width:1.0;stroke-dasharray:2.0,2.0;" x1="208.5" x2="389.5" y1="369.7891" y2="369.7891"/><text fill="#000000" font-family="sans-serif" font-size="13" lengthAdjust="spacing" textLength="163" x="215.5" y="364.7231">convert and pass request</text><polygon fill="#FEFFDD" points="346,382.7891,444,382.7891,454,393.7891,444,405.7891,346,405.7891,336,393.7891,346,382.7891" style="stroke:#181818;stroke-width:0.5;"/><text fill="#000000" font-family="sans-serif" font-size="13" lengthAdjust="spacing" textLength="94" x="348" y="398.856">moveit move()</text><polygon fill="#181818" points="219.5,428.0547,209.5,432.0547,219.5,436.0547,215.5,432.0547" style="stroke:#181818;stroke-width:1.0;"/><line style="stroke:#181818;stroke-width:1.0;stroke-dasharray:2.0,2.0;" x1="213.5" x2="394.5" y1="432.0547" y2="432.0547"/><text fill="#000000" font-family="sans-serif" font-size="13" font-style="italic" lengthAdjust="spacing" textLength="51" x="225.5" y="426.9888">success</text><polygon fill="#181818" points="54.5,457.1875,44.5,461.1875,54.5,465.1875,50.5,461.1875" style="stroke:#181818;stroke-width:1.0;"/><line style="stroke:#181818;stroke-width:1.0;stroke-dasharray:2.0,2.0;" x1="48.5" x2="207.5" y1="461.1875" y2="461.1875"/><text fill="#000000" font-family="sans-serif" font-size="13" font-style="italic" lengthAdjust="spacing" textLength="51" x="60.5" y="456.1216">success</text><!--MD5=[6f570e69c5b54aed4d91bf7d99d7123c]
@startuml

title Synchronous manipulation - - RCL#2

''' ENTITIES
participant COLLECT
participant MANIP_UNIT
participant MANIPULATION

== put near to the marker ==

COLLECT - -> MANIP_UNIT : send command near
MANIP_UNIT - -> MANIPULATION : convert and pass request
hnote over MANIPULATION : moveit move()
MANIP_UNIT <- - MANIPULATION : <i>success</i>
COLLECT <- - MANIP_UNIT : <i>success</i>

== home position ==

COLLECT - -> MANIP_UNIT : send command home
MANIP_UNIT - -> MANIPULATION : convert and pass request
hnote over MANIPULATION : moveit move()
MANIP_UNIT <- - MANIPULATION : <i>success</i>
COLLECT <- - MANIP_UNIT : <i>success</i>

@enduml

@startuml

title Synchronous manipulation - - RCL#2

participant COLLECT
participant MANIP_UNIT
participant MANIPULATION

== put near to the marker ==

COLLECT - -> MANIP_UNIT : send command near
MANIP_UNIT - -> MANIPULATION : convert and pass request
hnote over MANIPULATION : moveit move()
MANIP_UNIT <- - MANIPULATION : <i>success</i>
COLLECT <- - MANIP_UNIT : <i>success</i>

== home position ==

COLLECT - -> MANIP_UNIT : send command home
MANIP_UNIT - -> MANIPULATION : convert and pass request
hnote over MANIPULATION : moveit move()
MANIP_UNIT <- - MANIPULATION : <i>success</i>
COLLECT <- - MANIP_UNIT : <i>success</i>

@enduml

PlantUML version 1.2022.6(Tue Jun 21 17:34:49 UTC 2022)
(GPL source distribution)
Java Runtime: Java(TM) SE Runtime Environment
JVM: Java HotSpot(TM) 64-Bit Server VM
Default Encoding: UTF-8
Language: en
Country: US
--></g></svg>